<svg version="1.1" xmlns="http://www.w3.org/2000/svg" viewBox="0 0 605.8233853349802 426.0489563053825"
     width="605.8233853349802" height="426.0489563053825"><!-- svg-source:excalidraw -->
    <metadata></metadata>
    <defs>
        <style class="style-fonts">
        </style>
    </defs>
    <rect x="0" y="0" width="605.8233853349802" height="426.0489563053825" fill="#ffffff"></rect>
    <g stroke-linecap="round">
        <g transform="translate(496.2521731290831 146.6520403198632) rotate(0 -193.34048046159296 96.96874169242449)"
           fill-rule="evenodd">
            <path d="M-483.71 59.17 C-483.71 59.17, -483.71 59.17, -483.71 59.17 M-483.71 59.17 C-483.71 59.17, -483.71 59.17, -483.71 59.17 M-485.94 67.84 C-481.82 62.84, -478.87 59.8, -474.78 55.01 M-485.94 67.84 C-482.89 65.04, -479.9 60.02, -474.78 55.01 M-483.57 71.22 C-477.27 63.54, -474.55 58.69, -466.52 51.59 M-483.57 71.22 C-477.63 65.52, -471.11 58.51, -466.52 51.59 M-482.52 76.1 C-476.03 71.15, -473.06 64.46, -460.87 51.2 M-482.52 76.1 C-474.18 67.35, -467.56 59.31, -460.87 51.2 M-482.13 81.75 C-472.46 73.1, -463.89 61.64, -455.89 51.56 M-482.13 81.75 C-472.76 72.63, -466.24 63.95, -455.89 51.56 M-481.08 86.64 C-473 79.58, -466.42 68.37, -450.9 51.92 M-481.08 86.64 C-474.07 78.52, -467.43 70.67, -450.9 51.92 M-480.68 92.28 C-473.68 81.26, -463.28 73.54, -445.26 51.52 M-480.68 92.28 C-469.19 80.03, -460.19 67.24, -445.26 51.52 M-479.63 97.17 C-468.5 83.18, -454.37 67.93, -440.27 51.88 M-479.63 97.17 C-466.48 82.21, -452.78 68.05, -440.27 51.88 M-479.24 102.81 C-465.24 84.72, -449.99 68.66, -434.63 51.49 M-479.24 102.81 C-465.02 86.13, -451.17 69.82, -434.63 51.49 M-478.84 108.45 C-462.33 88.63, -443.8 66.97, -429.64 51.85 M-478.84 108.45 C-463.09 91.33, -450.39 76.41, -429.64 51.85 M-477.79 113.34 C-458.96 93.64, -439.75 71.73, -424 51.46 M-477.79 113.34 C-464.6 97.11, -451.18 81.63, -424 51.46 M-476.09 117.48 C-462.71 100.97, -446.14 84.81, -419.01 51.82 M-476.09 117.48 C-463.58 103.71, -450.84 87.31, -419.01 51.82 M-475.04 122.36 C-461.3 105.31, -449.65 89.61, -413.37 51.42 M-475.04 122.36 C-459.91 103.64, -441.6 84.54, -413.37 51.42 M-473.33 126.5 C-452.07 104.46, -434.25 79.36, -408.38 51.78 M-473.33 126.5 C-458.32 110.1, -444.18 93.32, -408.38 51.78 M-472.28 131.39 C-453 111.58, -439.4 92.33, -402.74 51.39 M-472.28 131.39 C-458.34 113.98, -444.82 98.21, -402.74 51.39 M-470.57 135.52 C-443.92 103.9, -417.84 74.59, -397.75 51.75 M-470.57 135.52 C-449.34 110.72, -427.13 86.31, -397.75 51.75 M-469.52 140.41 C-443.06 105.7, -413.71 74.44, -392.11 51.35 M-469.52 140.41 C-451.08 119.18, -431.86 96.97, -392.11 51.35 M-467.81 144.54 C-443.74 118.02, -417.73 91.8, -387.12 51.71 M-467.81 144.54 C-451.91 125.57, -434.47 105.39, -387.12 51.71 M-465.45 147.92 C-433.31 112.82, -403.02 78.3, -382.13 52.07 M-465.45 147.92 C-433 110.73, -400.03 73.45, -382.13 52.07 M-463.74 152.05 C-435.5 122.23, -408.75 88.72, -376.49 51.68 M-463.74 152.05 C-445.2 130.14, -424.29 107.07, -376.49 51.68 M-462.04 156.19 C-438.6 128.64, -410.59 97.41, -371.5 52.04 M-462.04 156.19 C-443.66 135.73, -426.77 115.41, -371.5 52.04 M-460.33 160.32 C-439.59 133.45, -414.46 104.97, -365.86 51.64 M-460.33 160.32 C-439.94 136.19, -420.11 112.64, -365.86 51.64 M-457.97 163.7 C-424.55 126.62, -394.11 92.08, -360.87 52 M-457.97 163.7 C-431.59 133.78, -406.76 104.18, -360.87 52 M-456.26 167.83 C-426.51 132.7, -392.73 96.15, -355.23 51.61 M-456.26 167.83 C-422.11 130.62, -389.66 91.78, -355.23 51.61 M-453.9 171.21 C-429.39 144.13, -407.12 116.75, -350.24 51.97 M-453.9 171.21 C-423.84 136.31, -391.38 100.12, -350.24 51.97 M-451.54 174.59 C-417.93 137.31, -387.53 98.2, -344.6 51.57 M-451.54 174.59 C-418.81 139.61, -387.4 103.05, -344.6 51.57 M-449.17 177.97 C-418.12 143, -386.32 106.15, -339.61 51.93 M-449.17 177.97 C-415.98 141.02, -385.25 103.69, -339.61 51.93 M-446.81 181.35 C-404.92 131.48, -359.51 80.12, -333.97 51.54 M-446.81 181.35 C-408.83 139.05, -371.84 93.77, -333.97 51.54 M-444.45 184.73 C-408.75 144.33, -378.13 106.82, -328.98 51.9 M-444.45 184.73 C-405.98 138.97, -367.13 94.13, -328.98 51.9 M-441.43 187.35 C-398.76 135.89, -354.69 86.67, -323.99 52.26 M-441.43 187.35 C-409.6 149.38, -377.66 113.86, -323.99 52.26 M-439.07 190.73 C-415.23 159.87, -388.77 133.2, -318.35 51.86 M-439.07 190.73 C-391.9 136.49, -344.84 81.51, -318.35 51.86 M-436.7 194.11 C-393.6 144.42, -348.59 92.53, -313.36 52.23 M-436.7 194.11 C-412.6 165.17, -386.24 135.17, -313.36 52.23 M-434.34 197.49 C-397.98 154.28, -359.8 112.08, -307.72 51.83 M-434.34 197.49 C-390.07 149.58, -348.15 100.49, -307.72 51.83 M-431.32 200.11 C-387.75 147.75, -345.9 101.34, -302.73 52.19 M-431.32 200.11 C-401.35 166.39, -371.02 132.99, -302.73 52.19 M-428.96 203.49 C-376.06 144.66, -325.89 84.83, -297.09 51.8 M-428.96 203.49 C-391.6 158.22, -354.9 114.88, -297.09 51.8 M-426.6 206.87 C-375.13 148.82, -325.08 88.58, -292.1 52.16 M-426.6 206.87 C-381.97 156, -337.5 104.9, -292.1 52.16 M-424.23 210.25 C-389.81 170.33, -358.7 132.88, -286.46 51.76 M-424.23 210.25 C-380.37 158.68, -336.44 107.87, -286.46 51.76 M-421.21 212.87 C-386.94 171.58, -353.19 132.36, -281.47 52.12 M-421.21 212.87 C-385.18 168.11, -347.83 126.11, -281.47 52.12 M-418.85 216.25 C-365.75 158.3, -315.52 97.82, -275.83 51.73 M-418.85 216.25 C-371.06 163.58, -324.06 108.15, -275.83 51.73 M-415.83 218.88 C-358.49 153.42, -303.43 88.8, -270.84 52.09 M-415.83 218.88 C-371.85 167.9, -327.33 116.51, -270.84 52.09 M-412.81 221.5 C-362.92 162.43, -311.13 105.96, -265.86 52.45 M-412.81 221.5 C-358.97 162.42, -305.22 101.04, -265.86 52.45 M-410.45 224.88 C-357.74 168.25, -307.39 110.86, -260.21 52.05 M-410.45 224.88 C-363.67 174.67, -319.86 121.77, -260.21 52.05 M-406.78 226.75 C-349.8 157.95, -291.56 93.62, -255.23 52.41 M-406.78 226.75 C-363.35 175.3, -318.86 122.95, -255.23 52.41 M-403.76 229.37 C-354.21 174.28, -305.75 120.79, -249.58 52.02 M-403.76 229.37 C-344.78 162.09, -284.92 93.93, -249.58 52.02 M-400.74 232 C-345.31 167.48, -290.3 105.92, -244.6 52.38 M-400.74 232 C-344.21 168.49, -289.2 105.53, -244.6 52.38 M-397.06 233.87 C-363.79 195.86, -331.79 157.87, -238.95 51.98 M-397.06 233.87 C-351.46 182.25, -307.48 130.82, -238.95 51.98 M-394.04 236.49 C-343.42 178.79, -296.03 122.22, -233.97 52.34 M-394.04 236.49 C-331.31 164.22, -268.93 92.95, -233.97 52.34 M-391.03 239.12 C-354.23 196.42, -316.02 151.32, -228.32 51.95 M-391.03 239.12 C-354.76 199.17, -322 159.27, -228.32 51.95 M-387.35 240.99 C-321.89 167.23, -256.42 92.2, -223.34 52.31 M-387.35 240.99 C-352.44 201.59, -318.53 161.37, -223.34 52.31 M-384.33 243.61 C-345.38 194.5, -302.78 145.75, -217.69 51.91 M-384.33 243.61 C-320.64 172.11, -257.96 99.44, -217.69 51.91 M-380.66 245.48 C-322.58 177.26, -261.54 109.84, -212.71 52.27 M-380.66 245.48 C-341.07 197.4, -299.87 151.13, -212.71 52.27 M-376.33 246.6 C-335.02 198.74, -294.16 152.67, -207.06 51.88 M-376.33 246.6 C-331.22 193.41, -285.01 139.76, -207.06 51.88 M-372.65 248.46 C-305.15 169.9, -237.85 92.62, -202.08 52.24 M-372.65 248.46 C-324.33 194.11, -278.34 139.59, -202.08 52.24 M-368.98 250.33 C-330.32 208.17, -295.8 163.97, -197.09 52.6 M-368.98 250.33 C-303.2 174.04, -237.19 98.89, -197.09 52.6 M-365.3 252.2 C-307.5 186.79, -249.21 120.9, -191.45 52.21 M-365.3 252.2 C-310.01 191.34, -255.46 128.59, -191.45 52.21 M-361.63 254.07 C-300.11 182.05, -236.01 111.5, -186.46 52.57 M-361.63 254.07 C-311.48 196.27, -261.97 138.7, -186.46 52.57 M-357.3 255.19 C-314.89 205.58, -270.27 157.72, -180.82 52.17 M-357.3 255.19 C-303.33 192.26, -247.63 129.81, -180.82 52.17 M-77.81 -66.32 C-77.2 -67.2, -76.05 -69.84, -72.57 -72.36 M-77.81 -66.32 C-76.04 -68.28, -74.01 -70.08, -72.57 -72.36 M-354.28 257.81 C-314.92 214.51, -279.61 172.21, -175.83 52.53 M-354.28 257.81 C-307.52 202.26, -260.29 147.26, -175.83 52.53 M-82.01 -55.39 C-79.33 -58.35, -76.25 -61.61, -66.27 -73.51 M-82.01 -55.39 C-76.75 -61.76, -70.98 -68.31, -66.27 -73.51 M-349.95 258.93 C-280.7 179.35, -210.53 96.72, -170.19 52.14 M-349.95 258.93 C-295.24 193.43, -238.17 130.26, -170.19 52.14 M-83.59 -47.48 C-78.51 -52.65, -73.66 -58.28, -62.59 -71.64 M-83.59 -47.48 C-77.85 -53.86, -73.49 -60.06, -62.59 -71.64 M-345.61 260.04 C-285.41 187.3, -223.41 119.11, -165.2 52.5 M-345.61 260.04 C-306.27 214.86, -268.24 169.66, -165.2 52.5 M-85.82 -38.82 C-75.52 -51.49, -64.23 -63.06, -58.26 -70.52 M-85.82 -38.82 C-76.5 -48.33, -67.78 -59.35, -58.26 -70.52 M-341.28 261.16 C-291.12 200.91, -238.74 143, -159.56 52.1 M-341.28 261.16 C-289.91 201.01, -236.87 141.8, -159.56 52.1 M-86.08 -32.43 C-80.59 -40.95, -72.93 -51.47, -53.93 -69.41 M-86.08 -32.43 C-79.24 -41.88, -70.97 -50.1, -53.93 -69.41 M-336.95 262.27 C-293.21 211.04, -250.14 158.37, -154.57 52.46 M-336.95 262.27 C-287.3 202.19, -236.14 143.31, -154.57 52.46 M-85.68 -26.78 C-77.33 -39.01, -68.39 -48.77, -50.26 -67.54 M-85.68 -26.78 C-76.78 -38.06, -66.36 -49.06, -50.26 -67.54 M-332.62 263.39 C-274.52 192.33, -213.52 123.68, -148.93 52.07 M-332.62 263.39 C-279.46 203.13, -226.43 142.8, -148.93 52.07 M-84.63 -21.89 C-69.67 -38.85, -59.34 -53.33, -46.58 -65.67 M-84.63 -21.89 C-69.91 -38.89, -56.09 -55.91, -46.58 -65.67 M-328.29 264.5 C-285.94 214.97, -245.8 166.54, -143.94 52.43 M-328.29 264.5 C-286.72 216.18, -246.35 167.7, -143.94 52.43 M-83.58 -17.01 C-70.61 -33.4, -52.52 -49.77, -42.91 -63.8 M-83.58 -17.01 C-73.4 -28.4, -62.64 -42.02, -42.91 -63.8 M-323.3 264.86 C-264.7 197.53, -209.26 130.73, -138.95 52.79 M-323.3 264.86 C-256.36 186.36, -188.99 108.44, -138.95 52.79 M-82.53 -12.12 C-64.11 -30.79, -46.18 -50.62, -39.23 -61.93 M-82.53 -12.12 C-65.83 -31.65, -49.14 -51.63, -39.23 -61.93 M-318.97 265.98 C-253.72 188.14, -188.05 113.38, -133.31 52.39 M-318.97 265.98 C-278.63 220.41, -237.52 173.03, -133.31 52.39 M-80.82 -7.98 C-69.13 -19.71, -57.98 -34.84, -35.56 -60.06 M-80.82 -7.98 C-65.02 -25.23, -50.49 -42.35, -35.56 -60.06 M-313.99 266.34 C-276.87 222.09, -240.18 180.44, -128.32 52.75 M-313.99 266.34 C-272.69 218.56, -231.53 170.77, -128.32 52.75 M-79.12 -3.85 C-61.99 -25.18, -43.09 -45.96, -32.54 -57.43 M-79.12 -3.85 C-69.05 -16.04, -58.96 -26.67, -32.54 -57.43 M-309.66 267.45 C-256.79 205.28, -203.08 141.64, -121.37 50.85 M-309.66 267.45 C-258.16 208.27, -207.94 150.29, -121.37 50.85 M-77.41 0.28 C-57.26 -21.74, -42.33 -39.78, -28.86 -55.56 M-77.41 0.28 C-61.23 -16.68, -45.72 -35.99, -28.86 -55.56 M-305.32 268.57 C-240.4 196.95, -177.02 121.87, -115.72 50.45 M-305.32 268.57 C-235.59 187.48, -163.29 105.85, -115.72 50.45 M-76.36 5.17 C-60.87 -9.97, -50.65 -26.15, -26.5 -52.19 M-76.36 5.17 C-64.89 -8.66, -51.25 -22.87, -26.5 -52.19 M-299.68 268.17 C-252.53 213.22, -206.12 160.51, -110.08 50.06 M-299.68 268.17 C-260.94 223.95, -221.55 179.2, -110.08 50.06 M-74 8.55 C-64.92 -2.5, -50.58 -14.73, -24.14 -48.81 M-74 8.55 C-56.88 -11.05, -41.73 -28.21, -24.14 -48.81 M-294.69 268.53 C-253.96 220.34, -213.12 172.51, -104.44 49.67 M-294.69 268.53 C-227.87 189.77, -159.14 110.3, -104.44 49.67 M-71.63 11.93 C-60.82 -0.46, -48.22 -14.25, -21.12 -46.18 M-71.63 11.93 C-59.38 -4.18, -45.56 -18.93, -21.12 -46.18 M-289.71 268.89 C-245.66 217.89, -202.94 169.35, -98.79 49.27 M-289.71 268.89 C-236.62 207.96, -184.26 147.03, -98.79 49.27 M-69.27 15.31 C-56.35 1.06, -47.2 -13.7, -18.75 -42.8 M-69.27 15.31 C-57.29 -0.18, -43.87 -15.2, -18.75 -42.8 M-284.72 269.25 C-218.91 193.8, -154.96 117.47, -93.15 48.88 M-284.72 269.25 C-217.55 192.96, -151.72 118.19, -93.15 48.88 M-66.91 18.69 C-56.15 6.7, -46.78 -3.85, -16.39 -39.42 M-66.91 18.69 C-51.97 0.47, -37.77 -16.59, -16.39 -39.42 M-279.08 268.86 C-239.1 221.55, -200.09 176.3, -88.16 49.24 M-279.08 268.86 C-207.52 188.77, -137.2 108.31, -88.16 49.24 M-63.89 21.31 C-51.74 8.59, -39.52 -6.56, -14.03 -36.05 M-63.89 21.31 C-51.06 7.13, -38.07 -8.43, -14.03 -36.05 M-274.09 269.22 C-199.79 184.07, -130.1 103.65, -81.21 47.33 M-274.09 269.22 C-212.35 197.99, -150.74 129, -81.21 47.33 M-61.53 24.69 C-47.49 7.43, -31.71 -5.08, -11.67 -32.67 M-61.53 24.69 C-42.26 2.54, -23.14 -20.27, -11.67 -32.67 M-269.1 269.58 C-199.47 194.17, -132.74 116.85, -74.91 46.18 M-269.1 269.58 C-196.71 185.13, -123.32 101.97, -74.91 46.18 M-59.16 28.07 C-48.11 14.56, -38.54 5.11, -9.3 -29.29 M-59.16 28.07 C-46.03 14.35, -33.61 -1.78, -9.3 -29.29 M-263.46 269.18 C-195.25 192.7, -128.73 115.63, -68.61 45.03 M-263.46 269.18 C-205.44 203.22, -149.09 138.09, -68.61 45.03 M-56.8 31.45 C-38.6 11.46, -22.83 -9.26, -7.6 -25.15 M-56.8 31.45 C-46.84 20.81, -36.26 8.21, -7.6 -25.15 M-257.82 268.79 C-169.82 163.96, -79.74 61.39, -4.58 -22.53 M-257.82 268.79 C-199.86 200.18, -141.03 132.19, -4.58 -22.53 M-252.17 268.39 C-168.43 173.49, -87.15 79.17, -3.53 -17.64 M-252.17 268.39 C-187.44 191.79, -121.46 114.75, -3.53 -17.64 M-246.53 268 C-180 196.2, -115.81 122.44, -1.82 -13.51 M-246.53 268 C-169.43 180.81, -91.99 91.95, -1.82 -13.51 M-240.89 267.6 C-179.45 197.14, -118.47 126.41, -0.77 -8.62 M-240.89 267.6 C-179.42 196.33, -118.47 125.68, -0.77 -8.62 M-236.56 268.72 C-159.02 176.6, -78.89 84.89, 0.94 -4.49 M-236.56 268.72 C-167.87 190.38, -98.86 110.46, 0.94 -4.49 M-230.91 268.32 C-153.64 177.36, -73.84 88.39, 1.33 1.16 M-230.91 268.32 C-164.95 190.26, -99.09 113.13, 1.33 1.16 M-224.61 267.18 C-148.75 177.87, -73.4 91.57, 10.25 -3.01 M-224.61 267.18 C-164.86 199.46, -106.74 131.97, 10.25 -3.01 M-218.32 266.03 C-162.52 200.79, -103.14 132.62, 19.83 -7.93 M-218.32 266.03 C-155.37 194.73, -94.38 124.28, 19.83 -7.93 M-212.67 265.63 C-125.45 165.86, -37.69 66.43, 26.13 -9.08 M-212.67 265.63 C-133.88 175.26, -55.98 85.33, 26.13 -9.08 M-206.37 264.48 C-121.51 166.53, -36.34 68.5, 30.46 -7.97 M-206.37 264.48 C-122.93 167.7, -38.45 69.96, 30.46 -7.97 M-200.07 263.33 C-131.23 187.91, -64.41 110.36, 35.45 -7.61 M-200.07 263.33 C-107.82 158.19, -15.98 53.41, 35.45 -7.61 M-193.77 262.18 C-118.68 178.42, -46.91 94.18, 41.09 -8 M-193.77 262.18 C-110.27 165.88, -26.53 69.18, 41.09 -8 M-187.48 261.03 C-119.62 183.06, -51.72 102.73, 46.08 -7.64 M-187.48 261.03 C-105.51 168.38, -25.55 76.06, 46.08 -7.64 M-179.86 258.38 C-114.3 186.5, -51.07 113.44, 51.07 -7.28 M-179.86 258.38 C-104.96 171.5, -27.99 84.39, 51.07 -7.28 M-172.91 256.47 C-106.42 180.71, -38.95 104.02, 56.71 -7.68 M-172.91 256.47 C-115.45 192.52, -59.49 127.89, 56.71 -7.68 M-165.95 254.57 C-109.9 190.72, -55.16 124.23, 61.7 -7.32 M-165.95 254.57 C-91.93 169.96, -17.37 84.09, 61.7 -7.32 M-161.62 255.68 C-82.43 163.75, -3.29 73.94, 66.03 -6.2 M-161.62 255.68 C-76.77 156.13, 8.14 58.72, 66.03 -6.2 M-153.36 252.27 C-97.8 188.26, -43.32 123.38, -0.49 76.42 M-153.36 252.27 C-109.47 198.47, -63.38 147.3, -0.49 76.42 M4.75 70.38 C20.98 53.57, 34.76 34.23, 70.36 -5.09 M4.75 70.38 C29.54 44.08, 53.25 16.08, 70.36 -5.09 M-145.09 248.86 C-87.22 182.97, -32.09 116.98, -3.38 85.84 M-145.09 248.86 C-93.73 188.44, -43.26 129.93, -3.38 85.84 M13.02 66.97 C30.81 46.4, 53.92 24.06, 74.04 -3.22 M13.02 66.97 C28.98 49.44, 44.71 30.38, 74.04 -3.22 M-136.82 245.44 C-101.11 206.24, -66.12 165.91, -6.27 95.25 M-136.82 245.44 C-90.57 191.48, -43.16 137, -6.27 95.25 M18.66 66.58 C33.54 49.99, 47.25 34.54, 77.71 -1.35 M18.66 66.58 C37.11 46.86, 54.83 25.62, 77.71 -1.35 M-128.55 242.03 C-92.37 202.17, -56.2 159.49, -9.15 104.67 M-128.55 242.03 C-93.27 203.4, -59.04 162.01, -9.15 104.67 M24.31 66.18 C47.69 40.05, 68.18 12.51, 81.38 0.52 M24.31 66.18 C40.93 45.45, 59.02 25.26, 81.38 0.52 M-117.01 234.84 C-74.03 187.32, -32.73 135.94, -9.41 111.07 M-117.01 234.84 C-88.13 203.22, -61.3 171.17, -9.41 111.07 M29.95 65.79 C49.58 44.91, 65.86 23.5, 85.06 2.39 M29.95 65.79 C45.63 50.16, 59.17 32.78, 85.06 2.39 M-107.43 229.92 C-84.65 201.5, -59.31 174.31, -14.92 123.5 M-107.43 229.92 C-74.6 191.01, -41.26 154.67, -14.92 123.5 M35.59 65.39 C53.25 47.15, 71.76 27.81, 88.73 4.26 M35.59 65.39 C57.1 42.13, 77.25 18.56, 88.73 4.26 M-97.19 224.24 C-69.88 194.91, -43.7 161.72, -20.43 135.94 M-97.19 224.24 C-69.32 193.6, -41.47 161.65, -20.43 135.94 M41.24 65 C59.77 42.89, 76.74 21.75, 91.75 6.88 M41.24 65 C53.47 51.01, 66.2 36.1, 91.75 6.88 M-83.02 214.04 C-61.33 188.07, -41.33 164.84, -25.29 147.62 M-83.02 214.04 C-69.63 198.99, -56.54 184.24, -25.29 147.62 M48.85 62.34 C60.47 51.2, 70.74 37.27, 94.77 9.51 M48.85 62.34 C61.34 49.04, 70.59 37.69, 94.77 9.51 M-66.22 200.81 C-57.16 188.53, -42.92 176.71, -30.8 160.06 M-66.22 200.81 C-58.55 191.94, -50.61 182.77, -30.8 160.06 M56.46 59.68 C69.19 44.98, 86.84 26.49, 97.79 12.13 M56.46 59.68 C69.01 44.29, 82.6 31.15, 97.79 12.13 M64.07 57.02 C72.36 47.65, 81.69 36.23, 99.5 16.27 M64.07 57.02 C70.86 49.01, 78 40.97, 99.5 16.27 M72.34 53.61 C82.35 40.85, 93.96 26.22, 101.86 19.65 M72.34 53.61 C78.33 44.97, 85.3 38.24, 101.86 19.65"
                  stroke="#228be6" stroke-width="0.5" fill="none"></path>
            <path d="M-0.75 -0.87 C-2.52 -6.24, -5 -22.54, -11.19 -32.89 C-17.37 -43.23, -27.74 -56.42, -37.88 -62.94 C-48.01 -69.46, -63.63 -76.87, -72 -72 C-80.38 -67.13, -87.22 -46.53, -88.13 -33.73 C-89.03 -20.94, -82.46 -6.64, -77.42 4.77 C-72.38 16.17, -56.02 27.59, -57.89 34.71 C-59.76 41.82, -71.72 44.95, -88.64 47.48 C-105.55 50, -135.14 49.47, -159.4 49.86 C-183.66 50.25, -191.42 50.02, -234.22 49.81 C-277.02 49.6, -375.57 48.29, -416.2 48.61 C-456.82 48.94, -466.82 44.47, -477.97 51.76 C-489.13 59.05, -485.74 74.58, -483.13 92.35 C-480.51 110.11, -474.06 136.56, -462.29 158.37 C-450.51 180.18, -430.08 207.02, -412.49 223.2 C-394.91 239.38, -377.84 247.85, -356.78 255.43 C-335.72 263.02, -314.04 267.79, -286.13 268.7 C-258.21 269.6, -220.72 268.3, -189.28 260.89 C-157.84 253.48, -121.87 238.57, -97.49 224.22 C-73.1 209.87, -57.42 193.95, -42.98 174.79 C-28.54 155.63, -18.67 126.88, -10.86 109.27 C-3.06 91.66, -4.47 76.81, 3.84 69.13 C12.14 61.44, 26.3 66.64, 38.96 63.16 C51.62 59.67, 69.71 55.98, 79.78 48.2 C89.86 40.42, 101.12 25.74, 99.39 16.47 C97.67 7.2, 81.46 -3.03, 69.41 -7.41 C57.36 -11.78, 38.55 -10.88, 27.09 -9.78 C15.64 -8.69, 5.29 -2.47, 0.69 -0.83 M1.05 1.29 C-0.74 -4.37, -5.02 -24.09, -11.64 -34.63 C-18.26 -45.17, -28.71 -55.35, -38.68 -61.95 C-48.65 -68.56, -63.56 -79.02, -71.46 -74.25 C-79.35 -69.49, -85.34 -46.39, -86.08 -33.35 C-86.83 -20.3, -80.63 -7.07, -75.93 4.02 C-71.22 15.12, -55.6 26.09, -57.87 33.2 C-60.13 40.32, -72.34 43.59, -89.52 46.7 C-106.7 49.81, -136.87 51.4, -160.96 51.86 C-185.04 52.31, -191.46 49.89, -234.03 49.41 C-276.6 48.93, -375.5 48.74, -416.4 48.98 C-457.3 49.23, -468.37 43.81, -479.43 50.86 C-490.48 57.92, -485.43 73.48, -482.7 91.33 C-479.97 109.17, -474.72 136.06, -463.04 157.93 C-451.36 179.81, -430.4 206.19, -412.62 222.58 C-394.84 238.97, -377.25 248.47, -356.36 256.27 C-335.47 264.07, -315.44 269.06, -287.28 269.38 C-259.12 269.7, -218.86 265.62, -187.42 258.21 C-155.97 250.81, -122.67 239.1, -98.6 224.94 C-74.53 210.78, -57.45 192.19, -43.01 173.26 C-28.57 154.33, -19.8 128.97, -11.97 111.38 C-4.15 93.78, -4.55 75.9, 3.93 67.68 C12.42 59.47, 26.6 65.38, 38.94 62.08 C51.27 58.79, 68.19 55.55, 77.95 47.91 C87.71 40.28, 99.29 25.54, 97.5 16.26 C95.71 6.98, 78.75 -3.41, 67.21 -7.77 C55.67 -12.13, 39.69 -11.31, 28.28 -9.89 C16.88 -8.46, 3.61 -1.14, -1.22 0.78"
                  stroke="#000000" stroke-width="1" fill="none"></path>
        </g>
    </g>
    <mask></mask>
    <g stroke-linecap="round"
       transform="translate(62.387268456518996 133.6460967064097) rotate(0 27.60816950521746 26.29557824506449)">
        <path d="M0 0 C0 0, 0 0, 0 0 M0 0 C0 0, 0 0, 0 0 M-0.26 6.4 C1.53 4.29, 2.4 3.19, 4.99 0.36 M-0.26 6.4 C1.23 4.8, 2.51 3.54, 4.99 0.36 M0.13 12.04 C3.44 7.92, 7.18 3.67, 10.63 -0.03 M0.13 12.04 C2 8.33, 5.12 6.94, 10.63 -0.03 M-0.13 18.44 C3.4 13.54, 11.99 6.86, 15.62 0.33 M-0.13 18.44 C5.33 12.17, 10.2 7.43, 15.62 0.33 M0.27 24.08 C6.34 17.25, 13.69 10.97, 21.26 -0.07 M0.27 24.08 C7.77 14.01, 17.69 5.39, 21.26 -0.07 M0 30.48 C5.79 23.29, 12.26 18.41, 26.25 0.29 M0 30.48 C8.7 21.4, 17.41 11.05, 26.25 0.29 M-0.26 36.88 C8.17 24.05, 17.59 13.01, 31.89 -0.1 M-0.26 36.88 C8.83 26.67, 19.32 15.29, 31.89 -0.1 M0.14 42.52 C8.5 35.71, 14.6 25.37, 36.88 0.26 M0.14 42.52 C13.26 27.47, 27.07 11.79, 36.88 0.26 M-0.12 48.92 C16.87 32.66, 30.91 11.57, 42.52 -0.14 M-0.12 48.92 C17.36 29.15, 33.22 10.61, 42.52 -0.14 M1.58 53.05 C10.42 41.75, 18.74 31.78, 47.51 0.22 M1.58 53.05 C14.24 37.31, 29.06 21.97, 47.51 0.22 M7.23 52.66 C18.05 39.57, 28.2 29.89, 53.15 -0.17 M7.23 52.66 C24.28 31.99, 41.98 11.06, 53.15 -0.17 M12.21 53.02 C19.99 42, 28.17 33.3, 55.51 3.21 M12.21 53.02 C24.81 38.56, 36.86 25.34, 55.51 3.21 M17.86 52.62 C28.53 42.32, 39.54 27.52, 55.25 9.6 M17.86 52.62 C26.11 44.42, 32.19 35.8, 55.25 9.6 M22.84 52.98 C36.5 38.14, 49.05 25.47, 55.65 15.25 M22.84 52.98 C30.29 44.31, 37.28 37.3, 55.65 15.25 M28.49 52.59 C33.95 42.12, 45.22 34.13, 55.38 21.65 M28.49 52.59 C35.35 46.45, 40.97 38.28, 55.38 21.65 M33.47 52.95 C38.01 45.3, 42.58 40.45, 55.78 27.29 M33.47 52.95 C39.26 47.05, 44.16 40.9, 55.78 27.29 M39.12 52.55 C47.19 44.33, 50.12 36.03, 55.52 33.69 M39.12 52.55 C43.93 48.25, 47.56 43.89, 55.52 33.69 M44.1 52.91 C46.32 47.91, 51.19 44.63, 55.26 40.08 M44.1 52.91 C48.05 48.52, 51.73 43.66, 55.26 40.08 M49.09 53.27 C51.44 51.2, 53.85 49.03, 55.65 45.73 M49.09 53.27 C51.32 50.16, 53.53 47.75, 55.65 45.73 M54.73 52.88 C54.95 52.69, 55.22 52.47, 55.39 52.12 M54.73 52.88 C55.05 52.58, 55.24 52.33, 55.39 52.12"
              stroke="#228be6" stroke-width="0.5" fill="none"></path>
        <path d="M0 0 C14.29 -0.56, 25.14 0.51, 55.22 0 M0 0 C19.34 0.48, 37.42 -0.24, 55.22 0 M55.22 0 C53.95 15.12, 55.03 32.27, 55.22 52.59 M55.22 0 C55.5 10.35, 55.1 20.93, 55.22 52.59 M55.22 52.59 C41.33 52.38, 29.84 50.44, 0 52.59 M55.22 52.59 C32.44 53.4, 11.25 52.41, 0 52.59 M0 52.59 C-0.58 39.02, 1.98 24.59, 0 0 M0 52.59 C-0.68 41.52, 0.32 28.69, 0 0"
              stroke="#000000" stroke-width="1" fill="none"></path>
    </g>
    <g stroke-linecap="round"
       transform="translate(126.17920369995363 132.858541950318) rotate(0 26.514343455089943 26.51434345508997)">
        <path d="M0 0 C0 0, 0 0, 0 0 M0 0 C0 0, 0 0, 0 0 M-0.26 6.4 C1.67 4.04, 3.06 2.62, 4.99 0.36 M-0.26 6.4 C1.17 5.08, 2.58 2.72, 4.99 0.36 M0.13 12.04 C4.24 6.97, 5.47 4.17, 10.63 -0.03 M0.13 12.04 C3.76 8.72, 7.87 4.38, 10.63 -0.03 M-0.13 18.44 C5.04 14.98, 6.74 9.75, 15.62 0.33 M-0.13 18.44 C6.18 12.03, 10.73 6.39, 15.62 0.33 M0.27 24.08 C8.29 17.33, 15.21 7.76, 21.26 -0.07 M0.27 24.08 C7.94 16.83, 12.82 10.04, 21.26 -0.07 M0 30.48 C7.16 24.48, 12.81 14.34, 26.25 0.29 M0 30.48 C6.12 23.4, 11.88 16.57, 26.25 0.29 M-0.26 36.88 C5.92 26.74, 15.53 19.94, 31.89 -0.1 M-0.26 36.88 C10.24 25.79, 18.25 14.13, 31.89 -0.1 M0.14 42.52 C10.48 29.48, 23.8 15.16, 36.88 0.26 M0.14 42.52 C12.41 28.57, 25.24 15.41, 36.88 0.26 M-0.12 48.92 C13.28 31.55, 27.91 16.21, 42.52 -0.14 M-0.12 48.92 C13.46 32.97, 26.66 17.4, 42.52 -0.14 M0.93 53.81 C16.5 35.07, 34.09 14.48, 47.51 0.22 M0.93 53.81 C15.89 37.55, 27.82 23.51, 47.51 0.22 M5.91 54.17 C22.55 37, 39.53 17.65, 53.15 -0.17 M5.91 54.17 C17.39 39.81, 29.17 26.24, 53.15 -0.17 M11.56 53.77 C21.59 40.93, 34.91 28.51, 56.17 2.45 M11.56 53.77 C21.32 43.18, 31.26 30, 56.17 2.45 M16.54 54.13 C25.32 42.93, 32.04 32.88, 55.91 8.85 M16.54 54.13 C25.84 42.35, 38.19 30.09, 55.91 8.85 M22.19 53.74 C33.86 42.92, 41.88 29.09, 56.3 14.49 M22.19 53.74 C30.32 45.19, 37.41 36.52, 56.3 14.49 M27.17 54.1 C36.19 45.18, 39.99 37.2, 56.04 20.89 M27.17 54.1 C32.95 46.64, 38.07 40.54, 56.04 20.89 M32.82 53.7 C40.96 42.83, 48.58 34.76, 55.78 27.29 M32.82 53.7 C39.62 45.95, 47.09 38.51, 55.78 27.29 M37.8 54.06 C42.95 44.36, 50.35 38.35, 56.17 32.93 M37.8 54.06 C42.26 49.65, 47.07 44.03, 56.17 32.93 M43.45 53.67 C46.69 50.04, 52.46 46.92, 55.91 39.33 M43.45 53.67 C45.21 51.1, 48.58 47.11, 55.91 39.33 M48.43 54.03 C52.29 51.01, 54.87 48.23, 56.31 44.97 M48.43 54.03 C51.36 50.38, 54.64 47, 56.31 44.97"
              stroke="#228be6" stroke-width="0.5" fill="none"></path>
        <path d="M0 0 C19.04 0.98, 41.14 -0.42, 53.03 0 M0 0 C14.87 -0.5, 31.93 -0.94, 53.03 0 M53.03 0 C52.96 15.2, 50.84 33.57, 53.03 53.03 M53.03 0 C53.11 11.55, 52.47 23.77, 53.03 53.03 M53.03 53.03 C42.03 51.5, 33.41 53.98, 0 53.03 M53.03 53.03 C33.1 52.65, 12.95 53.09, 0 53.03 M0 53.03 C2.08 37.53, -1.41 22.24, 0 0 M0 53.03 C0.8 38.22, -0.2 24.83, 0 0"
              stroke="#000000" stroke-width="1" fill="none"></path>
    </g>
    <g stroke-linecap="round"
       transform="translate(189.53360852333776 133.73360279041992) rotate(0 26.07681303503898 26.07681303503898)">
        <path d="M0 0 C0 0, 0 0, 0 0 M0 0 C0 0, 0 0, 0 0 M-0.26 6.4 C0.61 5.45, 1.85 4, 4.99 0.36 M-0.26 6.4 C1.26 4.21, 2.91 2.76, 4.99 0.36 M0.13 12.04 C1.83 8.35, 6.23 4.49, 10.63 -0.03 M0.13 12.04 C2.64 10.1, 3.84 6.26, 10.63 -0.03 M-0.13 18.44 C5.25 11.17, 11.93 6.96, 15.62 0.33 M-0.13 18.44 C3.07 15.06, 6.79 10.55, 15.62 0.33 M0.27 24.08 C8.36 15.4, 13.29 7.47, 21.26 -0.07 M0.27 24.08 C4.23 19.27, 9.37 12.74, 21.26 -0.07 M0 30.48 C7.23 20.4, 12.21 14.28, 26.25 0.29 M0 30.48 C9.04 19.9, 17.45 8.98, 26.25 0.29 M-0.26 36.88 C6.92 29.89, 13.94 20.65, 31.89 -0.1 M-0.26 36.88 C10.49 22.78, 23.45 9.63, 31.89 -0.1 M0.14 42.52 C16.13 24.65, 29.99 8.03, 36.88 0.26 M0.14 42.52 C13.49 28.82, 25.69 14.24, 36.88 0.26 M-0.12 48.92 C17.78 28.98, 32.84 12.94, 42.52 -0.14 M-0.12 48.92 C9.23 37.64, 21.04 25.27, 42.52 -0.14 M2.24 52.3 C15.07 36.48, 28 21.26, 47.51 0.22 M2.24 52.3 C11.59 41.26, 23.35 28.79, 47.51 0.22 M7.23 52.66 C19.88 39.81, 28.28 25.42, 52.49 0.58 M7.23 52.66 C18.46 38.79, 30.81 25.28, 52.49 0.58 M12.21 53.02 C22.39 42.73, 31.07 30.86, 52.89 6.23 M12.21 53.02 C22.67 39.66, 32.61 28.19, 52.89 6.23 M17.86 52.62 C29.21 36.52, 43.82 23.11, 52.63 12.62 M17.86 52.62 C30.85 39.24, 41.92 26.01, 52.63 12.62 M22.84 52.98 C29.39 43.24, 38.18 34.3, 52.37 19.02 M22.84 52.98 C28.74 46.18, 34.59 37.55, 52.37 19.02 M28.49 52.59 C31.78 45.85, 36.29 42.37, 52.76 24.66 M28.49 52.59 C36.6 42.73, 47.13 31.98, 52.76 24.66 M33.47 52.95 C36.07 49.07, 41.07 45.39, 52.5 31.06 M33.47 52.95 C40.32 46.44, 46.25 39.95, 52.5 31.06 M39.12 52.55 C41.85 48.54, 45.19 45.84, 52.89 36.7 M39.12 52.55 C44.2 47.42, 48.4 40.76, 52.89 36.7 M44.1 52.91 C47.42 51.45, 47.4 47.45, 52.63 43.1 M44.1 52.91 C47.11 49.08, 50.52 46.35, 52.63 43.1 M49.75 52.52 C50.78 51.85, 51.78 50.54, 52.37 49.5 M49.75 52.52 C50.35 51.86, 50.93 51.22, 52.37 49.5"
              stroke="#228be6" stroke-width="0.5" fill="none"></path>
        <path d="M0 0 C16.27 -0.7, 30.62 0.03, 52.15 0 M0 0 C18.33 -0.56, 36.39 -0.32, 52.15 0 M52.15 0 C50.25 10.73, 50.7 22.33, 52.15 52.15 M52.15 0 C51.39 13.93, 51.15 27.4, 52.15 52.15 M52.15 52.15 C37.62 52.6, 20.68 50.1, 0 52.15 M52.15 52.15 C34.13 51.7, 16.71 51.52, 0 52.15 M0 52.15 C-2.08 35.87, -1.17 16.8, 0 0 M0 52.15 C-0.73 33.76, 0.53 14.88, 0 0"
              stroke="#000000" stroke-width="1" fill="none"></path>
    </g>
    <g stroke-linecap="round"
       transform="translate(251.13789166651577 133.20856628635863) rotate(0 26.07681303503898 26.07681303503898)">
        <path d="M0 0 C0 0, 0 0, 0 0 M0 0 C0 0, 0 0, 0 0 M-0.26 6.4 C0.96 5.02, 2.52 3.2, 4.99 0.36 M-0.26 6.4 C1.8 4.13, 3.68 1.96, 4.99 0.36 M0.13 12.04 C3.15 8.15, 3.05 6.82, 10.63 -0.03 M0.13 12.04 C3.6 6.47, 8.92 2.95, 10.63 -0.03 M-0.13 18.44 C6.06 14, 8.55 8.46, 15.62 0.33 M-0.13 18.44 C4.52 13.27, 8.95 8.76, 15.62 0.33 M0.27 24.08 C7.5 14.3, 13.16 9.48, 21.26 -0.07 M0.27 24.08 C6.5 16.35, 13.46 9.02, 21.26 -0.07 M0 30.48 C7.68 19.99, 19.31 9.88, 26.25 0.29 M0 30.48 C6.83 21.26, 13.97 12.53, 26.25 0.29 M-0.26 36.88 C7.12 27.76, 15.88 21.31, 31.89 -0.1 M-0.26 36.88 C10.67 25.21, 22.07 12.39, 31.89 -0.1 M0.14 42.52 C11.99 28.49, 23.81 16.09, 36.88 0.26 M0.14 42.52 C11.67 29.73, 24.01 15.59, 36.88 0.26 M-0.12 48.92 C9.33 39.62, 16.88 27.5, 42.52 -0.14 M-0.12 48.92 C13.38 34.3, 25.06 19.51, 42.52 -0.14 M2.24 52.3 C16.6 34.42, 29.87 21.17, 47.51 0.22 M2.24 52.3 C12.62 41.4, 21.26 30.32, 47.51 0.22 M7.23 52.66 C21.76 32.84, 37.86 14.27, 52.49 0.58 M7.23 52.66 C17.15 41.02, 26.8 29.44, 52.49 0.58 M12.21 53.02 C23.54 38.87, 37.02 23.25, 52.89 6.23 M12.21 53.02 C26.82 35.57, 43.76 18.12, 52.89 6.23 M17.86 52.62 C26.47 43.53, 36.78 30.36, 52.63 12.62 M17.86 52.62 C29.7 39.28, 41.4 25.42, 52.63 12.62 M22.84 52.98 C32.94 41.07, 43.83 28.2, 52.37 19.02 M22.84 52.98 C31.56 41.24, 40.43 32.46, 52.37 19.02 M28.49 52.59 C32.65 47.07, 41.73 39.3, 52.76 24.66 M28.49 52.59 C35.74 45.16, 40.36 37.79, 52.76 24.66 M33.47 52.95 C37.98 48.89, 42.88 42.99, 52.5 31.06 M33.47 52.95 C39.91 47.01, 44.65 38.55, 52.5 31.06 M39.12 52.55 C40.88 50.62, 45.59 46.33, 52.89 36.7 M39.12 52.55 C44.27 45.53, 49.22 40.09, 52.89 36.7 M44.1 52.91 C45.6 49.34, 50.21 45.25, 52.63 43.1 M44.1 52.91 C47.51 49.8, 50.16 46.7, 52.63 43.1 M49.75 52.52 C50.96 51.48, 51.15 50.4, 52.37 49.5 M49.75 52.52 C50.47 51.73, 51.25 51.05, 52.37 49.5"
              stroke="#228be6" stroke-width="0.5" fill="none"></path>
        <path d="M0 0 C18.1 0.39, 37.19 -1.85, 52.15 0 M0 0 C14.53 -0.09, 27.8 0.45, 52.15 0 M52.15 0 C50.15 11.97, 51.03 22.52, 52.15 52.15 M52.15 0 C50.81 12.98, 51.94 27.16, 52.15 52.15 M52.15 52.15 C42.22 50.75, 30.09 52.29, 0 52.15 M52.15 52.15 C39.59 51.75, 27.35 53.03, 0 52.15 M0 52.15 C-0.26 34.68, 1.48 20.09, 0 0 M0 52.15 C1.06 39.69, -0.76 29.01, 0 0"
              stroke="#000000" stroke-width="1" fill="none"></path>
    </g>
    <g stroke-linecap="round"
       transform="translate(313.5297295657879 133.73360279041992) rotate(0 26.076813035039095 26.07681303503898)">
        <path d="M0 0 C0 0, 0 0, 0 0 M0 0 C0 0, 0 0, 0 0 M-0.26 6.4 C1.57 4.29, 4.09 2.11, 4.99 0.36 M-0.26 6.4 C0.73 5.3, 1.68 3.49, 4.99 0.36 M0.13 12.04 C1.29 8.74, 7.06 6.54, 10.63 -0.03 M0.13 12.04 C4.7 8.15, 8.5 2.83, 10.63 -0.03 M-0.13 18.44 C2.27 15.4, 7.64 8.7, 15.62 0.33 M-0.13 18.44 C5.58 12.66, 11.57 6.32, 15.62 0.33 M0.27 24.08 C4.06 20.21, 10.76 10.96, 21.26 -0.07 M0.27 24.08 C8.37 15, 17.55 5.16, 21.26 -0.07 M0 30.48 C6.42 24.81, 10.47 18.43, 26.25 0.29 M0 30.48 C6.61 21.35, 14.02 13.88, 26.25 0.29 M-0.26 36.88 C12.01 25.95, 21.94 10.17, 31.89 -0.1 M-0.26 36.88 C9.5 26.23, 17.5 17.11, 31.89 -0.1 M0.14 42.52 C9.93 32.2, 18.37 23.25, 36.88 0.26 M0.14 42.52 C15.47 25.65, 28.41 9.51, 36.88 0.26 M-0.12 48.92 C7.95 37.54, 18.38 25.1, 42.52 -0.14 M-0.12 48.92 C14.23 31.34, 29.4 14.75, 42.52 -0.14 M2.24 52.3 C12.26 41.5, 23.11 25.11, 47.51 0.22 M2.24 52.3 C18.49 32.94, 36.56 13.84, 47.51 0.22 M7.23 52.66 C20.65 35.25, 33.77 18.87, 52.49 0.58 M7.23 52.66 C17.3 40, 28.42 28.86, 52.49 0.58 M12.21 53.02 C26.46 35.83, 43.48 18.76, 52.89 6.23 M12.21 53.02 C22.05 43.15, 29.42 32.24, 52.89 6.23 M17.86 52.62 C27.55 40.35, 36.5 33.9, 52.63 12.62 M17.86 52.62 C29.08 39.81, 41.43 25.27, 52.63 12.62 M22.84 52.98 C30.53 43.31, 41.75 31.28, 52.37 19.02 M22.84 52.98 C32.24 42.45, 42.76 29.19, 52.37 19.02 M28.49 52.59 C35.99 45.71, 39.66 37.29, 52.76 24.66 M28.49 52.59 C35.46 43.03, 43.95 33.2, 52.76 24.66 M33.47 52.95 C39.92 46.17, 45.84 40.53, 52.5 31.06 M33.47 52.95 C39.48 44.43, 45.55 37.13, 52.5 31.06 M39.12 52.55 C44.07 47.99, 49.01 43.93, 52.89 36.7 M39.12 52.55 C43.39 47.05, 48.69 42.82, 52.89 36.7 M44.1 52.91 C48.08 47.99, 51.42 45.29, 52.63 43.1 M44.1 52.91 C46.19 51.09, 48.25 48.6, 52.63 43.1 M49.75 52.52 C50.4 51.27, 51.59 50.26, 52.37 49.5 M49.75 52.52 C50.61 51.79, 51.44 50.89, 52.37 49.5"
              stroke="#228be6" stroke-width="0.5" fill="none"></path>
        <path d="M0 0 C15.41 -2.04, 28.44 0.38, 52.15 0 M0 0 C11.13 0.32, 23.27 -0.74, 52.15 0 M52.15 0 C51.14 15.16, 50.99 29.2, 52.15 52.15 M52.15 0 C51.81 15.05, 50.84 31.28, 52.15 52.15 M52.15 52.15 C35.05 51.64, 15.17 51.12, 0 52.15 M52.15 52.15 C37.58 52.93, 22.58 51.19, 0 52.15 M0 52.15 C1.24 35.15, -1.21 15.01, 0 0 M0 52.15 C-1.42 37.28, -0.03 20.04, 0 0"
              stroke="#000000" stroke-width="1" fill="none"></path>
    </g>
    <g stroke-linecap="round"
       transform="translate(250.35033691042509 71.60428314317937) rotate(0 26.514343455089943 26.51434345508997)">
        <path d="M0 0 C0 0, 0 0, 0 0 M0 0 C0 0, 0 0, 0 0 M-0.26 6.4 C2.19 4.3, 2.55 2.44, 4.99 0.36 M-0.26 6.4 C1.04 4.24, 2.89 2.77, 4.99 0.36 M0.13 12.04 C4.04 10.13, 5.98 5.64, 10.63 -0.03 M0.13 12.04 C2.57 9.3, 4.32 7.1, 10.63 -0.03 M-0.13 18.44 C5.54 11.36, 12.84 5.17, 15.62 0.33 M-0.13 18.44 C5.13 13.64, 8.99 7.29, 15.62 0.33 M0.27 24.08 C5.35 17.03, 11.47 12.1, 21.26 -0.07 M0.27 24.08 C7.5 16.58, 12.61 7.99, 21.26 -0.07 M0 30.48 C7.25 21.65, 14.87 11.5, 26.25 0.29 M0 30.48 C5.47 23.87, 12.48 17.1, 26.25 0.29 M-0.26 36.88 C8.77 24.69, 16.48 16.63, 31.89 -0.1 M-0.26 36.88 C10.28 25.27, 20.35 12.56, 31.89 -0.1 M0.14 42.52 C9.51 33.21, 20.32 21.61, 36.88 0.26 M0.14 42.52 C13.62 26.46, 28.29 9.02, 36.88 0.26 M-0.12 48.92 C15.09 29.68, 31.29 15.44, 42.52 -0.14 M-0.12 48.92 C12.5 34.82, 24.16 20.68, 42.52 -0.14 M1.58 53.05 C10.52 39.19, 24.15 29.6, 47.51 0.22 M1.58 53.05 C18.35 35.38, 33.87 15.67, 47.51 0.22 M6.57 53.41 C15.76 39.61, 26.67 28.53, 53.15 -0.17 M6.57 53.41 C17.87 41.26, 29.2 28.12, 53.15 -0.17 M12.21 53.02 C27.98 36.59, 38.74 19.15, 53.55 5.47 M12.21 53.02 C23.03 38.63, 34.67 25.86, 53.55 5.47 M17.2 53.38 C30.75 40.71, 43.22 24.64, 53.94 11.11 M17.2 53.38 C31.17 37.22, 43.61 22.29, 53.94 11.11 M22.84 52.98 C34.26 39.97, 45.73 26.68, 53.68 17.51 M22.84 52.98 C28.79 44.86, 35.01 37.5, 53.68 17.51 M27.83 53.34 C36.07 41.01, 46.83 33.48, 54.07 23.15 M27.83 53.34 C35.14 43.94, 43.66 35.71, 54.07 23.15 M33.47 52.95 C40.85 46.28, 48.81 37.74, 53.81 29.55 M33.47 52.95 C40.61 43.44, 49.53 34.14, 53.81 29.55 M38.46 53.31 C45.53 47.82, 50.11 40.56, 53.55 35.95 M38.46 53.31 C41.96 50.54, 45.7 45.17, 53.55 35.95 M44.1 52.91 C47.49 49.8, 48.59 47.73, 53.94 41.59 M44.1 52.91 C47.59 49.44, 51.25 45.95, 53.94 41.59 M49.09 53.27 C50.29 51.77, 51.84 50.21, 53.68 47.99 M49.09 53.27 C50.71 51.92, 51.64 49.65, 53.68 47.99"
              stroke="#228be6" stroke-width="0.5" fill="none"></path>
        <path d="M0 0 C16.14 0.97, 31.89 0.88, 53.03 0 M0 0 C12.7 -1.02, 26.98 -0.8, 53.03 0 M53.03 0 C52.09 16.12, 52.67 33.19, 53.03 53.03 M53.03 0 C52.31 13.42, 53.55 25.63, 53.03 53.03 M53.03 53.03 C40.26 52.4, 29.57 52.99, 0 53.03 M53.03 53.03 C39.04 52.74, 25.17 53.2, 0 53.03 M0 53.03 C-1.66 38.56, -0.22 27.46, 0 0 M0 53.03 C0.92 38.87, -0.37 26.04, 0 0"
              stroke="#000000" stroke-width="1" fill="none"></path>
    </g>
    <g stroke-linecap="round"
       transform="translate(191.02121195151062 74.66699608353633) rotate(0 25.201752194937058 25.20175219493703)">
        <path d="M0 0 C0 0, 0 0, 0 0 M0 0 C0 0, 0 0, 0 0 M-0.26 6.4 C0.61 4.61, 2.92 2.47, 4.99 0.36 M-0.26 6.4 C1.52 4.44, 3.23 1.7, 4.99 0.36 M0.13 12.04 C4.31 7.24, 4.62 6.07, 10.63 -0.03 M0.13 12.04 C3.79 7.85, 8.68 2.18, 10.63 -0.03 M-0.13 18.44 C7.19 11.69, 12.3 4.54, 15.62 0.33 M-0.13 18.44 C5.09 11.67, 10.73 4.15, 15.62 0.33 M0.27 24.08 C10.32 13.56, 16.9 4.7, 21.26 -0.07 M0.27 24.08 C6.51 14.83, 14.79 7.57, 21.26 -0.07 M0 30.48 C8.01 19.65, 15.38 9.43, 26.25 0.29 M0 30.48 C5.97 24.31, 10.71 18.82, 26.25 0.29 M-0.26 36.88 C11.09 23.56, 24.24 11.59, 31.89 -0.1 M-0.26 36.88 C7.55 27.31, 16.01 17.79, 31.89 -0.1 M0.14 42.52 C12.76 30.18, 23.56 19.16, 36.88 0.26 M0.14 42.52 C11.65 28.72, 24.94 14.08, 36.88 0.26 M-0.12 48.92 C12.95 36.59, 23.89 21.17, 42.52 -0.14 M-0.12 48.92 C9.56 37.08, 19.6 24.66, 42.52 -0.14 M2.24 52.3 C22.01 32.97, 39.25 10.6, 47.51 0.22 M2.24 52.3 C17.52 33.63, 32.18 15.92, 47.51 0.22 M7.23 52.66 C15.95 41.15, 25.7 29.69, 51.84 1.34 M7.23 52.66 C16.86 41.5, 25.73 31.39, 51.84 1.34 M12.87 52.26 C22.15 37.65, 34.91 27.81, 51.58 7.73 M12.87 52.26 C24.22 38.94, 36.79 26.29, 51.58 7.73 M17.86 52.62 C25.11 44.8, 32.53 36.3, 51.97 13.38 M17.86 52.62 C29.7 38.36, 42.14 24.34, 51.97 13.38 M23.5 52.23 C34.31 39.63, 41.42 27.44, 51.71 19.78 M23.5 52.23 C34.01 38.95, 46.03 28.03, 51.71 19.78 M28.49 52.59 C36.38 46.08, 42.56 34.56, 52.1 25.42 M28.49 52.59 C35.5 45.05, 42.5 37.64, 52.1 25.42 M34.13 52.19 C40.65 47.04, 47.17 38.29, 51.84 31.82 M34.13 52.19 C38.28 47.12, 42.96 43.48, 51.84 31.82 M39.12 52.55 C43.56 47.95, 45.01 42.89, 51.58 38.21 M39.12 52.55 C43.28 47.68, 45.61 45.12, 51.58 38.21 M44.76 52.16 C45.55 51.17, 48.17 48.87, 51.98 43.86 M44.76 52.16 C47.91 49.47, 50.2 45.37, 51.98 43.86"
              stroke="#228be6" stroke-width="0.5" fill="none"></path>
        <path d="M0 0 C8.77 0.24, 19.4 -1.95, 50.4 0 M0 0 C15.49 -0.26, 31.42 0.18, 50.4 0 M50.4 0 C50.02 12.78, 48.9 29.74, 50.4 50.4 M50.4 0 C50.43 15.35, 49.18 29.6, 50.4 50.4 M50.4 50.4 C35.2 50.24, 19.93 50.86, 0 50.4 M50.4 50.4 C30.96 49.67, 10.13 50.54, 0 50.4 M0 50.4 C0.41 34.07, -0.49 12.43, 0 0 M0 50.4 C-1.1 30.89, 0.1 11.17, 0 0"
              stroke="#000000" stroke-width="1" fill="none"></path>
    </g>
    <g stroke-linecap="round"
       transform="translate(127.22927670807621 74.22946566348537) rotate(0 25.201752194937058 25.20175219493703)">
        <path d="M0 0 C0 0, 0 0, 0 0 M0 0 C0 0, 0 0, 0 0 M-0.26 6.4 C1.39 4.34, 3.26 2.21, 4.99 0.36 M-0.26 6.4 C0.67 4.54, 2.23 3.85, 4.99 0.36 M0.13 12.04 C2.27 8.92, 8.43 4.39, 10.63 -0.03 M0.13 12.04 C3.87 7.76, 7.14 4.68, 10.63 -0.03 M-0.13 18.44 C4.47 13.35, 10.31 8.82, 15.62 0.33 M-0.13 18.44 C5.3 10.72, 13.16 4.47, 15.62 0.33 M0.27 24.08 C4.96 18.19, 10.27 14.64, 21.26 -0.07 M0.27 24.08 C7.21 16.9, 14.23 8.51, 21.26 -0.07 M0 30.48 C6.61 19.7, 14.23 10.73, 26.25 0.29 M0 30.48 C7.37 22.28, 16.12 12.91, 26.25 0.29 M-0.26 36.88 C7.15 31.16, 12.3 21.9, 31.89 -0.1 M-0.26 36.88 C11.17 23.76, 23.3 10.01, 31.89 -0.1 M0.14 42.52 C15.05 28.73, 26.94 10.12, 36.88 0.26 M0.14 42.52 C15.28 25.41, 28.84 9.51, 36.88 0.26 M-0.12 48.92 C8.07 38.4, 15.73 29.19, 42.52 -0.14 M-0.12 48.92 C11.58 34.26, 25.46 20, 42.52 -0.14 M2.24 52.3 C12.92 39.38, 22.93 29.87, 47.51 0.22 M2.24 52.3 C19.03 31.92, 36.48 11.29, 47.51 0.22 M7.23 52.66 C15.28 41.34, 23.72 32.33, 51.84 1.34 M7.23 52.66 C20.19 37.77, 32.62 24.12, 51.84 1.34 M12.87 52.26 C23.93 41.54, 35.32 26.31, 51.58 7.73 M12.87 52.26 C21.39 43.76, 27.75 34.83, 51.58 7.73 M17.86 52.62 C32.02 37.19, 45.07 23.95, 51.97 13.38 M17.86 52.62 C25.58 43.64, 32.85 36.3, 51.97 13.38 M23.5 52.23 C29.32 41.35, 40.97 32.93, 51.71 19.78 M23.5 52.23 C30.67 45.76, 36.59 37.24, 51.71 19.78 M28.49 52.59 C33.3 44.6, 38.15 39.44, 52.1 25.42 M28.49 52.59 C34.58 46.34, 39.79 39.82, 52.1 25.42 M34.13 52.19 C42.69 43.38, 46.14 34.5, 51.84 31.82 M34.13 52.19 C39.28 47.51, 43.24 42.77, 51.84 31.82 M39.12 52.55 C41.59 46.96, 47.04 43.29, 51.58 38.21 M39.12 52.55 C43.53 47.64, 47.64 42.21, 51.58 38.21 M44.76 52.16 C47.34 49.88, 50 47.49, 51.98 43.86 M44.76 52.16 C47.21 48.73, 49.64 46.08, 51.98 43.86"
              stroke="#228be6" stroke-width="0.5" fill="none"></path>
        <path d="M0 0 C15.35 -1.93, 32.68 -1.74, 50.4 0 M0 0 C10.53 0.07, 20.35 -0.01, 50.4 0 M50.4 0 C49.05 11.81, 50.15 21.36, 50.4 50.4 M50.4 0 C49.81 20.45, 50.58 39.51, 50.4 50.4 M50.4 50.4 C36.16 51.01, 25.12 50.77, 0 50.4 M50.4 50.4 C38.85 50.77, 28.73 49.54, 0 50.4 M0 50.4 C-0.86 35.47, 1.87 25.27, 0 0 M0 50.4 C0.75 38.24, 0.89 25.29, 0 0"
              stroke="#000000" stroke-width="1" fill="none"></path>
    </g>
    <g stroke-linecap="round"
       transform="translate(249.47527607032225 10) rotate(0 26.514343455089943 26.51434345508997)">
        <path d="M0 0 C0 0, 0 0, 0 0 M0 0 C0 0, 0 0, 0 0 M-0.26 6.4 C1.79 3.86, 2.41 2.46, 4.99 0.36 M-0.26 6.4 C1.55 4.74, 3.61 2.57, 4.99 0.36 M0.13 12.04 C3.8 9.8, 4.71 6.14, 10.63 -0.03 M0.13 12.04 C4.46 7.75, 7.35 4.08, 10.63 -0.03 M-0.13 18.44 C6.26 13.59, 11.53 5.91, 15.62 0.33 M-0.13 18.44 C5.85 13.04, 9.09 8.14, 15.62 0.33 M0.27 24.08 C6.19 19.49, 10.6 10.78, 21.26 -0.07 M0.27 24.08 C5.2 18.39, 9.78 12.91, 21.26 -0.07 M0 30.48 C4.7 21.94, 12.87 16.79, 26.25 0.29 M0 30.48 C8.7 21.48, 14.94 11.87, 26.25 0.29 M-0.26 36.88 C8.7 25.5, 20.61 12.8, 31.89 -0.1 M-0.26 36.88 C10.47 24.69, 21.79 13.27, 31.89 -0.1 M0.14 42.52 C11.76 27.33, 24.54 14.12, 36.88 0.26 M0.14 42.52 C11.82 28.77, 23.08 15.44, 36.88 0.26 M-0.12 48.92 C14.03 31.79, 30.21 12.83, 42.52 -0.14 M-0.12 48.92 C13.65 33.96, 24.43 21.25, 42.52 -0.14 M1.58 53.05 C17.78 36.39, 34.32 17.56, 47.51 0.22 M1.58 53.05 C12.72 39.07, 24.16 25.88, 47.51 0.22 M6.57 53.41 C17.14 40, 30.97 26.98, 53.15 -0.17 M6.57 53.41 C16.77 42.32, 27.15 28.63, 53.15 -0.17 M12.21 53.02 C21.42 41.29, 28.59 30.75, 53.55 5.47 M12.21 53.02 C22.03 40.62, 34.9 27.76, 53.55 5.47 M17.2 53.38 C29.69 41.61, 38.55 26.82, 53.94 11.11 M17.2 53.38 C25.92 44.16, 33.61 34.8, 53.94 11.11 M22.84 52.98 C32.35 43.53, 36.63 35.01, 53.68 17.51 M22.84 52.98 C29.02 45.04, 34.54 38.48, 53.68 17.51 M27.83 53.34 C37.2 41.11, 46.03 31.64, 54.07 23.15 M27.83 53.34 C35.59 44.47, 44.02 35.91, 54.07 23.15 M33.47 52.95 C39.33 42.41, 47.46 35.56, 53.81 29.55 M33.47 52.95 C38.4 47.98, 43.68 41.81, 53.81 29.55 M38.46 53.31 C42.48 48.82, 49.13 44.88, 53.55 35.95 M38.46 53.31 C40.73 50.14, 44.68 45.47, 53.55 35.95 M44.1 52.91 C48.92 49.14, 52.15 45.67, 53.94 41.59 M44.1 52.91 C47.76 48.35, 51.86 44.13, 53.94 41.59 M49.09 53.27 C51.12 52.03, 52.58 49.39, 53.68 47.99 M49.09 53.27 C49.95 52.39, 51.36 51.1, 53.68 47.99"
              stroke="#228be6" stroke-width="0.5" fill="none"></path>
        <path d="M0 0 C17.02 -1.16, 31.74 0.36, 53.03 0 M0 0 C11.85 -0.22, 23.14 0.07, 53.03 0 M53.03 0 C52.48 9.17, 54.64 22.44, 53.03 53.03 M53.03 0 C52.55 19.29, 52.29 39.62, 53.03 53.03 M53.03 53.03 C39.06 53.56, 19.7 54.15, 0 53.03 M53.03 53.03 C39.48 52.62, 24.37 53.34, 0 53.03 M0 53.03 C2.11 33.5, -0.74 10.59, 0 0 M0 53.03 C0.28 35.43, 0.3 16.67, 0 0"
              stroke="#000000" stroke-width="1" fill="none"></path>
    </g>
</svg>