<svg version="1.1" xmlns="http://www.w3.org/2000/svg" viewBox="0 0 343.5 343.5" width="343.5"
     height="343.5"><!-- svg-source:excalidraw -->
    <metadata></metadata>
    <defs>
        <style class="style-fonts">
        </style>
    </defs>
    <rect x="0" y="0" width="343.5" height="343.5" fill="#ffffff"></rect>
    <g stroke-linecap="round" transform="translate(10 10) rotate(0 161.75 161.75)">
        <path d="M87.68 16.83 C100.16 7.71, 118.74 4.62, 134.41 2.19 C150.07 -0.23, 165.97 0.37, 181.65 2.27 C197.33 4.16, 213.79 7, 228.47 13.56 C243.14 20.13, 257.79 30.8, 269.71 41.66 C281.62 52.51, 291.67 65.13, 299.95 78.72 C308.23 92.31, 315.44 108.06, 319.39 123.18 C323.34 138.31, 324.64 153.7, 323.65 169.46 C322.66 185.21, 319.02 202.67, 313.46 217.72 C307.9 232.76, 299.89 247.24, 290.29 259.73 C280.68 272.22, 268.64 283.47, 255.81 292.64 C242.98 301.82, 228.45 309.67, 213.3 314.79 C198.15 319.9, 180.98 322.81, 164.91 323.35 C148.84 323.89, 132.25 322.5, 116.89 318.01 C101.54 313.52, 86.17 305.15, 72.8 296.41 C59.43 287.67, 46.76 277.79, 36.65 265.58 C26.55 253.38, 18.27 238.01, 12.17 223.21 C6.07 208.41, 1.52 192.52, 0.04 176.79 C-1.44 161.05, -0.17 144.3, 3.28 128.78 C6.73 113.26, 13.17 97.63, 20.73 83.67 C28.28 69.71, 36.99 56.05, 48.59 45 C60.2 33.95, 82.85 21.7, 90.36 17.38 C97.87 13.06, 92.5 16.63, 93.66 19.07 M155.1 0.92 C170.05 -2.76, 188.65 0.04, 203.85 3.78 C219.04 7.52, 232.87 14.88, 246.29 23.33 C259.71 31.79, 273.9 42.64, 284.36 54.52 C294.83 66.4, 302.98 79.9, 309.08 94.6 C315.18 109.29, 319.08 126.71, 320.97 142.71 C322.87 158.71, 323.27 174.84, 320.45 190.59 C317.63 206.34, 311.52 222.89, 304.05 237.22 C296.58 251.56, 286.41 265.57, 275.62 276.6 C264.82 287.63, 253.15 295.89, 239.29 303.41 C225.44 310.93, 208.08 318.37, 192.48 321.72 C176.87 325.06, 161.53 325.59, 145.66 323.48 C129.78 321.38, 112.13 315.72, 97.23 309.08 C82.34 302.45, 68.09 293.95, 56.27 283.66 C44.45 273.37, 34.49 260.71, 26.3 247.34 C18.11 233.96, 11.55 218.41, 7.14 203.42 C2.72 188.43, -0.42 172.97, -0.19 157.4 C0.05 141.83, 3.37 124.88, 8.55 109.98 C13.73 95.09, 21.32 81.1, 30.88 68.04 C40.43 54.97, 53.11 41.12, 65.88 31.57 C78.65 22.03, 92.48 15.86, 107.49 10.75 C122.51 5.64, 148.12 2.05, 155.95 0.94 C163.78 -0.18, 154.76 1.36, 154.47 4.07"
              stroke="none" stroke-width="0" fill="#868e96"></path>
        <path d="M131.33 3.17 C145.66 -2.24, 164.61 -0.54, 180.46 1.19 C196.3 2.91, 212.11 7.19, 226.42 13.52 C240.74 19.86, 254.38 28.85, 266.35 39.21 C278.32 49.56, 289.48 62.13, 298.24 75.66 C306.99 89.18, 314.65 104.87, 318.89 120.35 C323.13 135.84, 324.45 152.76, 323.69 168.55 C322.94 184.33, 319.55 200.14, 314.35 215.06 C309.15 229.98, 302.02 245.42, 292.47 258.07 C282.93 270.72, 269.83 281.63, 257.08 290.97 C244.34 300.3, 230.99 308.85, 216 314.1 C201 319.35, 183.17 321.92, 167.11 322.48 C151.04 323.03, 134.93 321.49, 119.62 317.4 C104.31 313.32, 88.62 306.46, 75.24 297.97 C61.87 289.48, 49.53 278.52, 39.37 266.47 C29.21 254.42, 20.77 240.07, 14.28 225.65 C7.79 211.23, 2.17 195.46, 0.43 179.94 C-1.32 164.42, 0.65 148.1, 3.81 132.52 C6.97 116.94, 12.24 100.6, 19.4 86.46 C26.55 72.32, 35.7 59.08, 46.75 47.69 C57.79 36.31, 69.62 25.91, 85.67 18.16 C101.73 10.42, 131.72 3.63, 143.07 1.22 C154.41 -1.19, 153.55 0.92, 153.74 3.73 M113.53 8.27 C127.21 1.23, 144.31 -0.6, 160.26 -0.78 C176.21 -0.96, 194.01 2.51, 209.22 7.19 C224.42 11.87, 238.56 18.33, 251.49 27.29 C264.42 36.25, 276.88 48.26, 286.8 60.94 C296.73 73.62, 305.23 88.66, 311.05 103.37 C316.86 118.08, 320.17 133.41, 321.69 149.21 C323.2 165.01, 323.42 182.58, 320.13 198.18 C316.83 213.78, 310.12 229.15, 301.94 242.81 C293.75 256.47, 282.57 269.2, 271.01 280.13 C259.44 291.06, 246.71 301.63, 232.53 308.4 C218.35 315.17, 201.57 318.37, 185.95 320.75 C170.33 323.14, 154.71 324.89, 138.79 322.72 C122.87 320.55, 104.91 314.78, 90.44 307.73 C75.97 300.68, 63.56 291.07, 51.95 280.43 C40.35 269.79, 28.84 257.49, 20.81 243.89 C12.79 230.29, 7.12 214.71, 3.8 198.81 C0.48 182.91, -0.19 164.31, 0.88 148.48 C1.96 132.65, 4.33 118.36, 10.26 103.84 C16.19 89.32, 26.24 73.83, 36.47 61.38 C46.7 48.94, 58.92 38.1, 71.65 29.18 C84.38 20.26, 105.65 11.21, 112.84 7.86 C120.03 4.5, 114.04 6.78, 114.79 9.04"
              stroke="#000000" stroke-width="1" fill="none"></path>
    </g>
    <g stroke-linecap="round">
        <g transform="translate(108.19113110879744 74.89672225775473) rotate(0 50.75440925536998 99.04920020348285)"
           fill-rule="evenodd">
            <path d="M-0.09 -2.11 C2.45 -1.71, 9.4 0.67, 13.54 3.44 C17.69 6.2, 20.61 13.37, 24.77 14.46 C28.92 15.56, 29.22 10.59, 38.47 10.02 C47.71 9.44, 71.37 10.23, 80.25 11 C89.13 11.78, 87.97 15.72, 91.75 14.65 C95.53 13.57, 98.34 7.62, 102.92 4.56 C107.49 1.49, 116.65 -4.84, 119.21 -3.74 C121.77 -2.64, 117.75 6.84, 118.28 11.14 C118.81 15.45, 119.62 17.94, 122.38 22.09 C125.14 26.23, 131.85 28.19, 134.85 36 C137.84 43.81, 140.84 57.73, 140.33 68.94 C139.82 80.15, 134.9 95.23, 131.8 103.25 C128.7 111.27, 126.37 113.48, 121.73 117.07 C117.08 120.67, 110.24 122.65, 103.92 124.8 C97.6 126.96, 86.23 128.74, 83.8 130.01 C81.37 131.29, 87.38 130.42, 89.36 132.45 C91.34 134.48, 94.12 135.31, 95.69 142.19 C97.25 149.07, 98.95 165.27, 98.76 173.72 C98.56 182.17, 95.75 188.91, 94.52 192.89 C93.28 196.86, 99.98 196.81, 91.37 197.57 C82.75 198.32, 51.73 198.11, 42.83 197.44 C33.93 196.77, 38.97 197.67, 37.94 193.56 C36.92 189.45, 38.61 176.31, 36.7 172.78 C34.8 169.25, 31.26 172.12, 26.52 172.39 C21.79 172.65, 13.44 175.71, 8.3 174.37 C3.16 173.03, -0.46 168.71, -4.32 164.35 C-8.19 159.99, -11.6 152.45, -14.89 148.21 C-18.17 143.97, -20.72 141.29, -24.03 138.91 C-27.34 136.53, -35.12 134.63, -34.73 133.93 C-34.34 133.22, -25.8 133.84, -21.7 134.69 C-17.61 135.54, -13.5 136.3, -10.15 139.02 C-6.8 141.74, -5.74 147.86, -1.6 151.01 C2.53 154.16, 9.67 157.23, 14.66 157.89 C19.65 158.56, 25.01 156.07, 28.32 155.02 C31.64 153.97, 33.15 153.85, 34.57 151.6 C35.98 149.35, 35.97 144.3, 36.82 141.5 C37.67 138.71, 38.32 136.46, 39.68 134.82 C41.03 133.19, 46.87 133.64, 44.96 131.67 C43.04 129.7, 34.63 124.96, 28.19 123 C21.75 121.04, 11.26 122.94, 6.32 119.9 C1.38 116.86, 1.57 113.72, -1.45 104.75 C-4.47 95.79, -11.07 78.05, -11.79 66.1 C-12.51 54.16, -8.69 40.09, -5.79 33.08 C-2.89 26.08, 4.4 27.57, 5.6 24.06 C6.8 20.56, 2.42 15.91, 1.41 12.04 C0.41 8.18, -0.15 2.73, -0.43 0.87"
                  stroke="none" stroke-width="0" fill="#fff" fill-rule="evenodd"></path>
            <path d="M-0.45 0.88 C2.41 1.59, 11.91 2.32, 16.45 5.1 C20.98 7.89, 22.66 16.43, 26.75 17.6 C30.84 18.77, 31.91 13.13, 40.97 12.13 C50.03 11.13, 72.31 11.39, 81.1 11.6 C89.89 11.81, 90 14.09, 93.71 13.37 C97.41 12.65, 99.36 9.97, 103.31 7.27 C107.26 4.58, 114.4 -3.2, 117.42 -2.81 C120.45 -2.41, 121.02 5.34, 121.46 9.64 C121.91 13.93, 118.17 19.01, 120.08 22.94 C121.99 26.88, 130.09 25.56, 132.91 33.24 C135.73 40.93, 136.93 57.44, 137.01 69.03 C137.09 80.61, 136.22 94.74, 133.4 102.75 C130.59 110.75, 125.12 113.48, 120.11 117.06 C115.1 120.65, 109.26 122.23, 103.35 124.24 C97.45 126.25, 86.97 127.43, 84.66 129.12 C82.35 130.82, 87.77 132.09, 89.5 134.4 C91.23 136.7, 93.76 135.88, 95.04 142.96 C96.32 150.04, 96.73 168.05, 97.21 176.87 C97.69 185.68, 98.91 192.38, 97.9 195.85 C96.9 199.31, 99.92 197.21, 91.19 197.66 C82.47 198.12, 54.28 199.2, 45.54 198.6 C36.8 197.99, 40.01 198.71, 38.74 194.03 C37.48 189.34, 39.8 173.96, 37.95 170.49 C36.11 167.03, 32.16 172.62, 27.66 173.23 C23.16 173.84, 16.81 175.43, 10.94 174.13 C5.07 172.83, -2.92 169.44, -7.55 165.42 C-12.19 161.4, -13.54 154.48, -16.86 150 C-20.18 145.51, -24.1 141.49, -27.48 138.51 C-30.85 135.52, -37.76 133.04, -37.11 132.11 C-36.47 131.17, -27.55 131.32, -23.6 132.89 C-19.64 134.46, -17.04 138.15, -13.39 141.51 C-9.74 144.88, -5.99 150.17, -1.7 153.1 C2.58 156.02, 7.1 158.27, 12.31 159.06 C17.53 159.85, 25.49 159.08, 29.57 157.82 C33.66 156.56, 35.61 154.21, 36.82 151.5 C38.03 148.8, 35.96 144.49, 36.83 141.59 C37.7 138.7, 40.35 136.25, 42.05 134.12 C43.75 131.99, 49.48 130.32, 47.04 128.82 C44.61 127.31, 34.26 126.9, 27.43 125.09 C20.6 123.29, 11.11 121.61, 6.08 117.98 C1.04 114.35, 0.07 111.43, -2.79 103.3 C-5.65 95.18, -10.77 80.43, -11.08 69.23 C-11.38 58.04, -7.23 43.47, -4.63 36.15 C-2.03 28.84, 3.98 28.86, 4.52 25.34 C5.05 21.81, -0.84 19.18, -1.42 15 C-2 10.82, 0.65 2.63, 1.04 0.26 M1.52 0.29 C4.34 1.1, 11.76 3.86, 15.88 6.42 C19.99 8.97, 21.97 14.49, 26.21 15.63 C30.45 16.76, 32.42 13.92, 41.32 13.22 C50.23 12.52, 70.68 11, 79.65 11.41 C88.62 11.82, 91.1 16.51, 95.15 15.69 C99.2 14.87, 100.34 9.6, 103.92 6.49 C107.51 3.39, 113.96 -3.24, 116.68 -2.96 C119.4 -2.67, 119.57 3.91, 120.26 8.21 C120.94 12.51, 118.58 18.6, 120.77 22.86 C122.96 27.12, 130.41 26.07, 133.39 33.79 C136.37 41.5, 138.66 57.23, 138.67 69.13 C138.67 81.02, 136.12 97.22, 133.42 105.15 C130.73 113.08, 127.51 113.67, 122.49 116.71 C117.48 119.75, 109.53 121.1, 103.32 123.4 C97.11 125.71, 87.22 129.09, 85.24 130.52 C83.25 131.95, 89.47 129.91, 91.42 131.98 C93.37 134.05, 96.19 135.94, 96.93 142.95 C97.67 149.97, 96.16 165.5, 95.88 174.08 C95.6 182.67, 96.2 190.2, 95.27 194.47 C94.34 198.75, 98.51 198.72, 90.3 199.74 C82.09 200.76, 54.69 201.64, 46.03 200.59 C37.38 199.53, 39.42 198.57, 38.36 193.38 C37.3 188.19, 41.73 172.8, 39.65 169.44 C37.56 166.09, 30.95 172.56, 25.85 173.26 C20.74 173.95, 14.43 174.99, 9.01 173.6 C3.59 172.21, -2.57 169.07, -6.67 164.94 C-10.78 160.8, -12.07 153, -15.61 148.81 C-19.15 144.61, -24.61 142.75, -27.92 139.75 C-31.22 136.74, -36.64 131.68, -35.45 130.79 C-34.27 129.9, -24.39 132.9, -20.82 134.41 C-17.25 135.92, -17.41 136.75, -14.04 139.84 C-10.68 142.94, -5.2 149.59, -0.62 152.97 C3.97 156.35, 8.74 159.38, 13.46 160.12 C18.19 160.86, 23.79 159.2, 27.75 157.41 C31.72 155.62, 35.47 152.25, 37.26 149.39 C39.04 146.54, 37.49 142.87, 38.44 140.28 C39.39 137.69, 41.65 135.75, 42.95 133.88 C44.26 132.01, 49.06 130.43, 46.3 129.04 C43.54 127.64, 33.12 127.23, 26.4 125.51 C19.67 123.78, 10.57 122.36, 5.94 118.68 C1.3 115.01, 1.04 111.64, -1.42 103.47 C-3.89 95.3, -8.35 81.22, -8.84 69.67 C-9.34 58.12, -6.5 41.07, -4.39 34.16 C-2.28 27.26, 3.05 31.33, 3.83 28.25 C4.61 25.16, 0.82 20.34, 0.29 15.63 C-0.25 10.92, 0.95 2.65, 0.61 -0.03"
                  stroke="#000000" stroke-width="1" fill="none"></path>
        </g>
    </g>
    <mask></mask>
</svg>