<svg version="1.1" xmlns="http://www.w3.org/2000/svg" viewBox="0 0 460.6059732941317 452.1111635662686"
     width="460.6059732941317" height="452.1111635662686"><!-- svg-source:excalidraw -->
    <metadata></metadata>
    <defs>
        <style class="style-fonts">
        </style>
    </defs>
    <rect x="0" y="0" width="460.6059732941317" height="452.1111635662686" fill="#ffffff"></rect>
    <g stroke-linecap="round">
        <g transform="translate(229.36552712941875 10) rotate(0 0.9374595176470848 216.0555817831343)"
           fill-rule="evenodd">
            <path d="M1.08 -1.81 L-182.71 88.63 L-219.59 274.51 L-93.62 429.92 L116.81 429.57 L221.74 260.01 L178.32 79.68 L-1.41 0.44"
                  stroke="none" stroke-width="0" fill="#326ce5" fill-rule="evenodd"></path>
            <path d="M0 0 C-43.81 20.82, -83.71 42.31, -181.87 86.99 M0 0 C-65.33 30.12, -128.74 60.18, -181.87 86.99 M-181.87 86.99 C-190.49 147.94, -204.29 209.29, -219.37 273.01 M-181.87 86.99 C-191.23 135.65, -202.73 183.9, -219.37 273.01 M-219.37 273.01 C-192.08 308.97, -162.13 344.28, -93.75 431.26 M-219.37 273.01 C-190.68 308.45, -161.22 344.04, -93.75 431.26 M-93.75 431.26 C-33.15 430.85, 27.15 430.52, 117.18 430.34 M-93.75 431.26 C-44 432.94, 3.65 431.86, 117.18 430.34 M117.18 430.34 C138.99 393.37, 163.99 352.83, 221.24 260.98 M117.18 430.34 C137.21 395.33, 158.33 360.57, 221.24 260.98 M221.24 260.98 C207.26 202.83, 193.7 143.82, 179.99 77.74 M221.24 260.98 C212.73 216.97, 201.99 173.52, 179.99 77.74 M179.99 77.74 C123.03 51.74, 61.75 26.56, 0 0 M179.99 77.74 C114.38 49.83, 50.41 23.13, 0 0 M0 0 C0 0, 0 0, 0 0 M0 0 C0 0, 0 0, 0 0"
                  stroke="#000000" stroke-width="1" fill="none"></path>
        </g>
    </g>
    <mask></mask>
    <g stroke-linecap="round">
        <g transform="translate(195.00958717592266 116.99385678601197) rotate(0.5801223728874558 40.25940791070434 107.89059341456638)"
           fill-rule="evenodd">
            <path d="M0.61 -1.19 C4.28 -1.9, 17.64 -2.22, 21.55 -5.21 C25.46 -8.21, 24.02 -11.41, 24.06 -19.19 C24.11 -26.96, 19.54 -46.07, 21.8 -51.84 C24.07 -57.62, 34.68 -59.16, 37.66 -53.85 C40.63 -48.53, 38.54 -27.42, 39.67 -19.96 C40.8 -12.51, 39.89 -12.03, 44.43 -9.12 C48.97 -6.21, 57.07 -5.75, 66.9 -2.5 C76.72 0.75, 92.54 5.66, 103.37 10.38 C114.19 15.1, 125.96 23.22, 131.86 25.82 C137.75 28.42, 133.99 28.84, 138.73 25.96 C143.47 23.08, 154.76 10.11, 160.3 8.52 C165.84 6.92, 174.63 12.62, 171.97 16.39 C169.31 20.16, 149.38 26.6, 144.35 31.12 C139.33 35.65, 139.33 36.42, 141.83 43.54 C144.32 50.65, 155.33 63.68, 159.34 73.8 C163.36 83.91, 163.95 93.01, 165.9 104.24 C167.85 115.47, 169.42 134.49, 171.05 141.2 C172.68 147.91, 169.46 143.63, 175.67 144.5 C181.88 145.36, 203.24 143.83, 208.3 146.4 C213.36 148.96, 211.89 158.21, 206.04 159.88 C200.2 161.56, 179.99 157.16, 173.2 156.44 C166.42 155.71, 169.25 151.04, 165.34 155.53 C161.43 160.02, 155.19 174.28, 149.73 183.37 C144.26 192.47, 140.38 202.27, 132.56 210.09 C124.75 217.92, 107.29 224.77, 102.85 230.31 C98.41 235.84, 101.78 237.16, 105.94 243.3 C110.09 249.44, 126.45 261.8, 127.79 267.15 C129.13 272.51, 118.35 279.46, 113.98 275.4 C109.6 271.34, 105.85 249.05, 101.54 242.8 C97.23 236.56, 95.83 237.1, 88.09 237.94 C80.36 238.79, 67.67 246.49, 55.14 247.87 C42.61 249.26, 24.62 248.41, 12.91 246.23 C1.2 244.06, -8.68 236.03, -15.13 234.83 C-21.58 233.64, -22.06 234.09, -25.81 239.09 C-29.56 244.09, -33.22 261.35, -37.61 264.85 C-42 268.34, -52.96 265.05, -52.15 260.06 C-51.35 255.07, -36.19 240.98, -32.77 234.91 C-29.36 228.84, -28.17 228.43, -31.66 223.64 C-35.14 218.86, -46.53 213.4, -53.68 206.2 C-60.82 199, -70 188.16, -74.53 180.45 C-79.06 172.75, -77.88 163.31, -80.83 159.98 C-83.78 156.64, -84.75 159.53, -92.22 160.42 C-99.7 161.31, -120.55 166.62, -125.69 165.32 C-130.83 164.01, -128.15 155.22, -123.07 152.6 C-117.99 149.97, -101.28 150.69, -95.19 149.56 C-89.09 148.43, -87.59 153.59, -86.51 145.83 C-85.42 138.07, -89.97 114.75, -88.66 103.01 C-87.36 91.27, -82.67 84.51, -78.67 75.41 C-74.66 66.32, -66.05 54.42, -64.64 48.43 C-63.23 42.44, -64.64 43.49, -70.19 39.45 C-75.74 35.41, -94.36 28.54, -97.96 24.18 C-101.56 19.82, -96.85 12.02, -91.8 13.29 C-86.75 14.57, -73.73 28.56, -67.68 31.82 C-61.63 35.07, -61.63 35.96, -55.51 32.84 C-49.4 29.71, -40.31 18.52, -31 13.06 C-21.69 7.6, -4.95 2.07, 0.36 0.08"
                  stroke="none" stroke-width="0" fill="#ffff" fill-rule="evenodd"></path>
            <path d="M-0.5 0.23 C3.33 -0.74, 19.75 -3.5, 24.04 -6.96 C28.33 -10.42, 25.65 -12.74, 25.24 -20.51 C24.84 -28.29, 19.44 -47.73, 21.62 -53.6 C23.8 -59.47, 35.61 -61.66, 38.33 -55.75 C41.06 -49.83, 36.98 -26.25, 37.95 -18.12 C38.92 -9.99, 38.93 -9.55, 44.14 -6.98 C49.36 -4.41, 59.05 -5.58, 69.26 -2.7 C79.47 0.18, 95.36 5.24, 105.4 10.31 C115.44 15.37, 123.66 25.06, 129.5 27.7 C135.34 30.34, 135.13 29.5, 140.44 26.15 C145.76 22.79, 156.69 9.45, 161.41 7.56 C166.12 5.67, 170.97 10.66, 168.72 14.81 C166.47 18.97, 151.99 27.7, 147.89 32.49 C143.79 37.28, 142.14 37.06, 144.1 43.55 C146.07 50.04, 155.49 61, 159.67 71.45 C163.84 81.89, 167.69 94.87, 169.14 106.2 C170.59 117.52, 167.01 132.8, 168.38 139.4 C169.76 146, 171.18 144.32, 177.41 145.81 C183.64 147.3, 201.19 145.73, 205.77 148.32 C210.35 150.9, 209.97 160.01, 204.89 161.32 C199.82 162.63, 181.78 157, 175.31 156.2 C168.83 155.39, 169.93 151.84, 166.06 156.49 C162.19 161.14, 157.61 175.21, 152.06 184.1 C146.51 192.99, 140.99 201.97, 132.76 209.82 C124.53 217.67, 107.14 225.98, 102.69 231.21 C98.25 236.45, 102.22 235.29, 106.11 241.23 C109.99 247.18, 124.73 261.3, 126.01 266.89 C127.3 272.49, 118.37 278.64, 113.82 274.79 C109.27 270.94, 102.78 250.23, 98.7 243.81 C94.62 237.4, 96.51 236.13, 89.34 236.31 C82.17 236.49, 68.76 243.59, 55.68 244.87 C42.6 246.16, 22.9 245.82, 10.86 244 C-1.18 242.18, -10.58 234.66, -16.57 233.95 C-22.56 233.23, -21.25 234.15, -25.08 239.7 C-28.92 245.26, -35.46 264.03, -39.59 267.29 C-43.72 270.55, -50.87 264.8, -49.87 259.25 C-48.87 253.69, -36.69 239.82, -33.59 233.95 C-30.49 228.08, -27.82 228.45, -31.28 224.05 C-34.73 219.64, -47.33 214.7, -54.3 207.5 C-61.26 200.3, -68.52 188.49, -73.07 180.84 C-77.63 173.19, -78.05 165.33, -81.65 161.58 C-85.26 157.83, -87.58 157.26, -94.71 158.36 C-101.83 159.46, -119.51 168.7, -124.41 168.2 C-129.31 167.7, -128.85 158.43, -124.12 155.36 C-119.38 152.29, -102.18 151.7, -96.01 149.79 C-89.84 147.87, -88.43 151.4, -87.08 143.87 C-85.73 136.34, -89.07 116.03, -87.89 104.61 C-86.7 93.18, -83.85 84.71, -79.98 75.35 C-76.11 65.98, -66.16 54.34, -64.67 48.43 C-63.18 42.51, -65.11 44.07, -71.05 39.84 C-76.99 35.6, -96.81 27.83, -100.31 23 C-103.8 18.17, -97.5 9.22, -92.01 10.85 C-86.52 12.49, -73.81 29.23, -67.36 32.81 C-60.91 36.38, -59.28 35.1, -53.32 32.29 C-47.36 29.49, -40.48 21.22, -31.61 15.99 C-22.75 10.76, -5.41 3.7, -0.13 0.9 M1.44 -0.7 C5.06 -1.91, 19.53 -5.6, 23.32 -8.75 C27.11 -11.9, 24.53 -11.76, 24.19 -19.61 C23.86 -27.45, 19.2 -49.84, 21.31 -55.82 C23.42 -61.79, 34.42 -61.67, 36.85 -55.46 C39.27 -49.25, 34.48 -26.51, 35.86 -18.56 C37.23 -10.61, 39.7 -10.36, 45.12 -7.77 C50.54 -5.18, 58.52 -6.35, 68.36 -3 C78.2 0.35, 93.87 7.35, 104.16 12.35 C114.46 17.34, 124.56 24.51, 130.14 26.98 C135.72 29.45, 132.14 30.52, 137.64 27.17 C143.14 23.81, 158 9.04, 163.14 6.85 C168.28 4.67, 171.03 9.86, 168.47 14.05 C165.9 18.23, 152.28 27.09, 147.76 31.97 C143.24 36.85, 139.7 36.62, 141.34 43.33 C142.98 50.03, 153.09 61.61, 157.6 72.22 C162.11 82.83, 166.29 95.72, 168.41 106.98 C170.53 118.24, 168.98 133.27, 170.33 139.8 C171.68 146.34, 170.55 144.52, 176.52 146.21 C182.49 147.9, 201.55 147.57, 206.15 149.95 C210.74 152.32, 209.15 159.56, 204.09 160.47 C199.04 161.38, 182.14 155.68, 175.84 155.41 C169.53 155.14, 170.53 153.68, 166.26 158.86 C162 164.04, 156.07 177.85, 150.24 186.49 C144.41 195.12, 139.1 203.23, 131.29 210.64 C123.49 218.06, 107.46 225.93, 103.42 230.98 C99.39 236.03, 103.64 234.66, 107.08 240.94 C110.51 247.22, 122.82 263.31, 124.02 268.65 C125.22 274, 118.3 276.87, 114.26 273.02 C110.21 269.17, 103.9 251.39, 99.76 245.53 C95.63 239.67, 96.81 237.74, 89.44 237.88 C82.07 238.02, 68.39 245.51, 55.53 246.37 C42.66 247.24, 24.57 245.48, 12.26 243.08 C-0.06 240.68, -12.42 232.61, -18.38 231.98 C-24.33 231.35, -20.06 233.75, -23.48 239.28 C-26.91 244.82, -34.28 261.54, -38.92 265.19 C-43.56 268.85, -52.25 266.57, -51.32 261.23 C-50.38 255.89, -36.54 239.28, -33.32 233.16 C-30.1 227.04, -28.77 228.77, -31.99 224.5 C-35.21 220.22, -45.89 215.19, -52.65 207.5 C-59.4 199.82, -67.35 185.93, -72.53 178.4 C-77.71 170.86, -80.4 165.72, -83.74 162.28 C-87.09 158.85, -85.79 157.13, -92.6 157.79 C-99.41 158.44, -119.31 166.59, -124.63 166.21 C-129.94 165.83, -129.55 158.32, -124.49 155.51 C-119.43 152.71, -100.35 151.37, -94.29 149.38 C-88.22 147.38, -89.15 151.24, -88.09 143.53 C-87.04 135.83, -89.24 114.62, -87.96 103.13 C-86.68 91.63, -84.49 83.71, -80.43 74.57 C-76.37 65.43, -64.76 54.29, -63.59 48.3 C-62.42 42.3, -67.32 42.97, -73.4 38.59 C-79.48 34.22, -96.54 26.77, -100.06 22.04 C-103.57 17.31, -99.84 8.25, -94.5 10.24 C-89.17 12.22, -74.78 29.88, -68.05 33.94 C-61.33 37.99, -60.35 37.71, -54.16 34.55 C-47.97 31.38, -39.63 20.55, -30.89 14.93 C-22.15 9.3, -7.14 3.43, -1.71 0.79"
                  stroke="#000000" stroke-width="1" fill="none"></path>
        </g>
    </g>
    <mask></mask>
    <g stroke-linecap="round">
        <g transform="translate(157.09973329292598 164.20698613439896) rotate(0 33.617880212213095 0.5826956698428987)"
           fill-rule="evenodd">
            <path d="M-1.99 -1.09 C0.69 -4.1, 10.68 -12.76, 18.16 -17.91 C25.64 -23.06, 34.77 -29.76, 42.91 -31.99 C51.05 -34.21, 62.57 -36.46, 67 -31.28 C71.42 -26.11, 69.82 -11.96, 69.46 -0.94 C69.1 10.09, 71.65 31.48, 64.85 34.84 C58.05 38.2, 39.15 24.94, 28.66 19.22 C18.18 13.51, 6.77 3.93, 1.92 0.57"
                  stroke="none" stroke-width="0" fill="#326ce5" fill-rule="evenodd"></path>
            <path d="M0.43 0.63 C3.77 -2.56, 12.96 -13.81, 19.49 -18.93 C26.02 -24.05, 32.05 -27.77, 39.59 -30.08 C47.13 -32.39, 60.08 -38.14, 64.74 -32.79 C69.41 -27.43, 67.81 -9.36, 67.59 2.07 C67.38 13.5, 69.63 32.93, 63.46 35.78 C57.29 38.62, 41.02 25.19, 30.58 19.15 C20.15 13.11, 5.98 2.82, 0.84 -0.45 M-0.8 -0.08 C2.37 -3.15, 11.14 -12.47, 18.26 -17.81 C25.38 -23.14, 34.14 -29.75, 41.93 -32.08 C49.72 -34.41, 60.92 -37.03, 64.98 -31.79 C69.03 -26.54, 66.85 -11.78, 66.28 -0.6 C65.7 10.58, 67.36 32.22, 61.54 35.29 C55.72 38.37, 41.57 23.9, 31.35 17.85 C21.14 11.79, 5.21 1.69, 0.25 -1.03"
                  stroke="#000000" stroke-width="1" fill="none"></path>
        </g>
    </g>
    <mask></mask>
    <g stroke-linecap="round">
        <g transform="translate(228.49865363802746 156.20888288441742) rotate(56.61573969620872 34.51997142800201 0.26166036940553994)"
           fill-rule="evenodd">
            <path d="M-1.87 0.23 C2.12 -2.76, 14.6 -14.23, 21.95 -19.08 C29.29 -23.94, 35.28 -26.16, 42.18 -28.9 C49.07 -31.64, 58.63 -40.16, 63.31 -35.54 C67.99 -30.92, 70.17 -13.12, 70.23 -1.19 C70.29 10.74, 70.1 32.64, 63.68 36.06 C57.27 39.47, 42.43 25.48, 31.75 19.31 C21.06 13.14, 4.68 2.03, -0.42 -0.97"
                  stroke="none" stroke-width="0" fill="#326ce5" fill-rule="evenodd"></path>
            <path d="M-0.54 -0.79 C2.49 -3.76, 11.88 -12.24, 18.63 -17.18 C25.37 -22.12, 32.79 -27.85, 39.93 -30.41 C47.06 -32.96, 56.63 -37.56, 61.45 -32.53 C66.27 -27.51, 68.15 -11.68, 68.84 -0.26 C69.53 11.16, 71.96 32.89, 65.6 35.98 C59.24 39.07, 41.63 24.37, 30.66 18.29 C19.68 12.21, 4.69 2.52, -0.25 -0.51 M1.37 1.42 C4.72 -1.96, 14.49 -13.86, 20.78 -18.96 C27.08 -24.06, 32.3 -26.61, 39.15 -29.19 C45.99 -31.78, 57.09 -38.86, 61.85 -34.49 C66.61 -30.12, 66.82 -14.55, 67.7 -2.97 C68.58 8.61, 73.74 31.09, 67.14 34.98 C60.53 38.87, 39.51 26.38, 28.08 20.36 C16.66 14.35, 3.29 2.48, -1.41 -1.13"
                  stroke="#000000" stroke-width="1" fill="none"></path>
        </g>
    </g>
    <mask></mask>
    <g stroke-linecap="round">
        <g transform="translate(280.80134470967596 207.57137485817606) rotate(107.76551663161719 33.54858218669665 1.053562004521794)"
           fill-rule="evenodd">
            <path d="M2.26 -1.25 C6.27 -4.09, 15.53 -11.59, 22.19 -16.77 C28.84 -21.95, 34.79 -29.74, 42.18 -32.33 C49.58 -34.93, 62.69 -37.91, 66.56 -32.34 C70.42 -26.77, 66.06 -10.72, 65.38 1.08 C64.69 12.87, 68.41 35.26, 62.43 38.45 C56.44 41.64, 39.69 26.43, 29.47 20.24 C19.25 14.05, 5.87 4.32, 1.11 1.31"
                  stroke="none" stroke-width="0" fill="#326ce5" fill-rule="evenodd"></path>
            <path d="M-1.06 0.65 C2.35 -2.26, 13.04 -13.28, 19.93 -18.28 C26.83 -23.27, 32.78 -27.14, 40.32 -29.32 C47.86 -31.51, 60.67 -36.46, 65.17 -31.41 C69.66 -26.35, 67.93 -10.47, 67.29 1 C66.66 12.47, 67.62 34.15, 61.34 37.43 C55.06 40.71, 39.69 26.92, 29.64 20.7 C19.59 14.47, 6.13 3.61, 1.03 0.07 M0.58 -0.05 C3.88 -2.71, 12.45 -11.68, 18.97 -16.85 C25.49 -22.01, 31.91 -28.31, 39.71 -31.07 C47.51 -33.83, 61.37 -38.82, 65.74 -33.4 C70.12 -27.99, 66.98 -10.16, 65.95 1.43 C64.91 13.03, 65.5 32.6, 59.53 36.15 C53.57 39.7, 39.98 28.81, 30.15 22.74 C20.32 16.68, 5.49 3.31, 0.55 -0.24"
                  stroke="#000000" stroke-width="1" fill="none"></path>
        </g>
    </g>
    <mask></mask>
    <g stroke-linecap="round">
        <g transform="translate(270.2013685061511 278.99272454107194) rotate(163.11582915884097 32.027445705355376 2.2680278079799976)"
           fill-rule="evenodd">
            <path d="M2.22 1.3 C4.29 -1.14, 8.89 -10.74, 14.63 -15.94 C20.38 -21.14, 29.73 -27, 36.68 -29.88 C43.63 -32.76, 51.43 -38.59, 56.35 -33.24 C61.26 -27.9, 65.44 -9.78, 66.15 2.2 C66.86 14.18, 66.58 34.86, 60.6 38.64 C54.63 42.43, 40.22 30.99, 30.28 24.91 C20.34 18.84, 5.86 6.64, 0.96 2.21"
                  stroke="none" stroke-width="0" fill="#326ce5" fill-rule="evenodd"></path>
            <path d="M-0.03 -0.2 C2.28 -2.46, 6.88 -8.14, 12.77 -12.93 C18.66 -17.73, 27.71 -25.55, 35.29 -28.95 C42.88 -32.34, 53.3 -38.34, 58.26 -33.32 C63.23 -28.3, 64.65 -10.89, 65.06 1.18 C65.48 13.25, 66.58 35.35, 60.77 39.1 C54.96 42.85, 40.49 30.28, 30.2 23.67 C19.9 17.07, 4.21 3.39, -0.98 -0.53 M-1.5 -1.35 C0.76 -3.98, 5.92 -9.56, 11.98 -14.46 C18.04 -19.35, 27.08 -27.78, 34.86 -30.73 C42.64 -33.68, 53.77 -37.52, 58.64 -32.17 C63.5 -26.83, 63.46 -10.33, 64.03 1.33 C64.6 12.99, 68.1 34.28, 62.05 37.79 C56 41.29, 37.87 28.85, 27.72 22.36 C17.57 15.87, 5.67 2.77, 1.15 -1.16"
                  stroke="#000000" stroke-width="1" fill="none"></path>
        </g>
    </g>
    <mask></mask>
    <g stroke-linecap="round">
        <g transform="translate(207.25885734099893 315.8084060298825) rotate(216.28421746585929 33.83933839397446 -0.6203906038689979)"
           fill-rule="evenodd">
            <path d="M2.16 -1.86 C4.89 -4.78, 13.06 -11.25, 18.64 -16.18 C24.22 -21.12, 28.44 -28.01, 35.62 -31.48 C42.79 -34.95, 57.05 -42.1, 61.69 -37.01 C66.33 -31.93, 62.58 -13.69, 63.44 -0.97 C64.31 11.74, 71.87 35.34, 66.86 39.26 C61.86 43.18, 44.43 29.39, 33.43 22.57 C22.43 15.75, 6.3 2.36, 0.86 -1.66"
                  stroke="none" stroke-width="0" fill="#326ce5" fill-rule="evenodd"></path>
            <path d="M0.29 1.14 C3.17 -1.36, 11.04 -9.8, 17.25 -15.25 C23.46 -20.7, 30.31 -27.76, 37.53 -31.56 C44.76 -35.35, 56.25 -43.21, 60.6 -38.03 C64.95 -32.86, 62.58 -13.2, 63.61 -0.52 C64.64 12.15, 72.13 34.62, 66.78 38.02 C61.43 41.41, 42.78 26.15, 31.49 19.83 C20.21 13.51, 4.15 3.52, -0.92 0.12 M-1.01 0.7 C1.77 -2.1, 10.32 -11.67, 16.63 -16.82 C22.95 -21.97, 29.45 -26.81, 36.89 -30.2 C44.34 -33.59, 56.49 -42.13, 61.29 -37.17 C66.08 -32.2, 65.04 -12.76, 65.67 -0.4 C66.3 11.96, 70.75 33.3, 65.07 37.01 C59.4 40.72, 42.27 28.06, 31.63 21.87 C20.99 15.67, 6.5 3.26, 1.23 -0.17"
                  stroke="#000000" stroke-width="1" fill="none"></path>
        </g>
    </g>
    <mask></mask>
    <g stroke-linecap="round">
        <g transform="translate(138.08676719781124 287.56444586083757) rotate(272.70762780618236 33.65876543962895 -2.961896586149109)"
           fill-rule="evenodd">
            <path d="M2.02 0.13 C3.54 -2.58, 5.72 -12.56, 11.27 -18.09 C16.81 -23.63, 28.67 -30.14, 35.29 -33.09 C41.92 -36.05, 46.06 -40.73, 50.99 -35.82 C55.92 -30.91, 62.38 -14.82, 64.89 -3.62 C67.4 7.58, 71.74 27.5, 66.05 31.36 C60.36 35.23, 41.63 25.03, 30.75 19.55 C19.88 14.07, 5.58 1.4, 0.8 -1.51"
                  stroke="none" stroke-width="0" fill="#326ce5" fill-rule="evenodd"></path>
            <path d="M0.63 1.06 C2.78 -2.16, 7.59 -12.31, 13.18 -18.17 C18.78 -24.03, 27.88 -31.25, 34.21 -34.11 C40.54 -36.98, 46.06 -40.24, 51.16 -35.36 C56.26 -30.49, 62.65 -15.53, 64.81 -4.86 C66.97 5.8, 70.09 24.26, 64.12 28.62 C58.15 32.99, 39.48 26.2, 28.97 21.33 C18.47 16.45, 5.75 2.83, 1.11 -0.61 M-0.5 0.57 C1.49 -1.92, 6.63 -10.99, 12.36 -16.59 C18.09 -22.19, 27.4 -30.04, 33.88 -33.03 C40.37 -36.02, 46.27 -39.3, 51.27 -34.53 C56.27 -29.76, 61.58 -15.35, 63.88 -4.43 C66.17 6.48, 70.81 26.88, 65.02 30.96 C59.23 35.04, 39.86 25.41, 29.13 20.04 C18.41 14.67, 5.52 2.13, 0.66 -1.28"
                  stroke="#000000" stroke-width="1" fill="none"></path>
        </g>
    </g>
    <mask></mask>
    <g stroke-linecap="round">
        <g transform="translate(119.1787719458116 220.78410609614264) rotate(323.4456150347969 36.802951608851345 -3.0777840904012805)"
           fill-rule="evenodd">
            <path d="M-1.68 0.15 C0.46 -2.81, 9.1 -11.88, 14.87 -17.68 C20.64 -23.48, 26.28 -31.45, 32.95 -34.63 C39.62 -37.81, 49.34 -41.85, 54.9 -36.75 C60.47 -31.65, 63.15 -15.32, 66.32 -4.03 C69.5 7.25, 78.93 27.21, 73.98 30.96 C69.02 34.71, 48.57 23.28, 36.59 18.46 C24.61 13.65, 8.48 5.19, 2.11 2.06"
                  stroke="none" stroke-width="0" fill="#326ce5" fill-rule="evenodd"></path>
            <path d="M0.24 0.08 C2.43 -3.21, 8.3 -12.99, 13.78 -18.7 C19.26 -24.41, 26.28 -30.96, 33.12 -34.17 C39.96 -37.39, 49.61 -42.56, 54.82 -37.99 C60.03 -33.43, 61.5 -18.56, 64.39 -6.77 C67.29 5.01, 76.78 28.37, 72.2 32.73 C67.61 37.09, 48.74 24.71, 36.89 19.36 C25.04 14.02, 7.06 4.02, 1.09 0.64 M-1.1 -0.92 C0.96 -3.54, 7.72 -12.04, 13.27 -17.4 C18.83 -22.77, 25.16 -29.88, 32.22 -33.13 C39.28 -36.37, 49.97 -41.27, 55.61 -36.85 C61.25 -32.44, 63.15 -18.1, 66.07 -6.66 C68.99 4.77, 78.4 27.08, 73.13 31.75 C67.86 36.42, 46.54 26.54, 34.45 21.36 C22.37 16.17, 6.39 4.05, 0.64 0.63"
                  stroke="#000000" stroke-width="1" fill="none"></path>
        </g>
    </g>
    <mask></mask>
    <g stroke-linecap="round"
       transform="translate(223.6949985209153 219.5899976692566) rotate(0 14.722222222222172 14.722222222222229)">
        <path d="M11.93 -0.21 C14.86 -0.92, 19.14 0.36, 21.98 2.02 C24.82 3.68, 27.81 6.89, 28.98 9.76 C30.15 12.63, 30.21 16.36, 29.01 19.23 C27.8 22.09, 24.49 25.21, 21.75 26.95 C19.01 28.68, 15.57 30.13, 12.57 29.64 C9.58 29.15, 5.96 26.48, 3.78 24.01 C1.6 21.54, -0.44 18, -0.5 14.82 C-0.55 11.64, 1.26 7.43, 3.44 4.93 C5.61 2.44, 10.9 0.57, 12.55 -0.16 C14.21 -0.9, 13.36 0.17, 13.36 0.51 M18.01 -0.31 C21 0.2, 24.13 3.36, 26.1 5.77 C28.08 8.19, 29.93 11.01, 29.85 14.2 C29.76 17.39, 27.72 22.32, 25.58 24.92 C23.45 27.52, 20.09 29.48, 17.04 29.81 C13.99 30.14, 10 28.64, 7.28 26.89 C4.55 25.14, 1.72 22.28, 0.7 19.32 C-0.33 16.37, 0.1 11.96, 1.13 9.18 C2.16 6.39, 4.24 4.08, 6.87 2.62 C9.5 1.16, 15.2 0.64, 16.9 0.42 C18.61 0.19, 17.1 0.98, 17.11 1.28"
              stroke="none" stroke-width="0" fill="#326ce5"></path>
        <path d="M13.98 -0.39 C16.96 -0.87, 20.83 0.54, 23.36 2.58 C25.88 4.62, 28.41 8.65, 29.11 11.87 C29.82 15.08, 28.98 19.05, 27.59 21.86 C26.19 24.66, 23.67 27.49, 20.74 28.71 C17.82 29.94, 13.1 30.27, 10.04 29.21 C6.98 28.16, 4.05 25.05, 2.4 22.4 C0.75 19.75, -0.26 16.41, 0.14 13.33 C0.54 10.24, 2.44 6.05, 4.79 3.87 C7.15 1.69, 12.54 0.79, 14.29 0.23 C16.04 -0.33, 15.18 0.26, 15.29 0.49 M12.89 0.84 C15.68 0.21, 19.13 0.39, 21.64 1.91 C24.16 3.42, 26.8 7, 28 9.93 C29.2 12.86, 29.78 16.5, 28.85 19.49 C27.92 22.49, 25.33 26.39, 22.41 27.89 C19.5 29.39, 14.45 29.17, 11.37 28.5 C8.3 27.82, 5.86 26.23, 3.95 23.84 C2.05 21.45, 0.06 17.35, -0.05 14.16 C-0.17 10.97, 1.19 6.93, 3.26 4.71 C5.34 2.49, 10.89 1.48, 12.4 0.83 C13.91 0.18, 12.26 0.63, 12.33 0.8"
              stroke="#000000" stroke-width="1" fill="none"></path>
    </g>
</svg>