<svg version="1.1" xmlns="http://www.w3.org/2000/svg" viewBox="0 0 207.1945276024676 232.85527736616154"
     width="207.1945276024676" height="232.85527736616154"><!-- svg-source:excalidraw -->
    <metadata></metadata>
    <defs>
        <style class="style-fonts">
        </style>
    </defs>
    <rect x="0" y="0" width="207.1945276024676" height="232.85527736616154" fill="#ffffff"></rect>
    <g stroke-linecap="round">
        <g transform="translate(104.36780982721871 10) rotate(0 -0.7705460259849133 106.42763868308077)"
           fill-rule="evenodd">
            <path d="M0.43 0.92 L-93.91 55.82 L-94.77 159.01 L1.94 214.07 L90.1 153.69 L91.79 51.01 L0 -1.15"
                  stroke="none" stroke-width="0" fill="#40c057" fill-rule="evenodd"></path>
            <path d="M0 0 C-32.49 19.36, -65.8 38.18, -94.14 54.14 M0 0 C-29.62 17.67, -60.38 33.79, -94.14 54.14 M-94.14 54.14 C-93.21 86.85, -93.26 122.8, -94.14 157.33 M-94.14 54.14 C-94.56 77.88, -94.3 101.35, -94.14 157.33 M-94.14 157.33 C-76.56 169.52, -57.08 182.21, 0.45 212.86 M-94.14 157.33 C-75.23 168.84, -54.99 181.17, 0.45 212.86 M0.45 212.86 C21.72 198.51, 40.8 185.19, 91.87 152.7 M0.45 212.86 C35.59 188.75, 70.55 167.61, 91.87 152.7 M91.87 152.7 C93.32 125.32, 92.96 94.99, 91.87 50.44 M91.87 152.7 C92.47 123.65, 92.72 96.02, 91.87 50.44 M91.87 50.44 C61.8 34.04, 31.91 18.39, 0 0 M91.87 50.44 C59.22 33.58, 27.98 15.88, 0 0 M0 0 C0 0, 0 0, 0 0 M0 0 C0 0, 0 0, 0 0"
                  stroke="#000000" stroke-width="1" fill="none"></path>
        </g>
    </g>
    <mask></mask>
    <g stroke-linecap="round">
        <g transform="translate(73.38987751628451 93.13709186554127) rotate(0 28.907140620436167 21.02177107249481)"
           fill-rule="evenodd">
            <path d="M0.34 -0.39 C0.24 4.99, -1.17 18.91, -1.44 30.1 C-1.71 41.29, 1.48 61.13, -1.27 66.75 C-4.01 72.37, -14.62 72.07, -17.9 63.81 C-21.17 55.54, -21.19 31.46, -20.9 17.14 C-20.61 2.83, -20.33 -14.79, -16.16 -22.07 C-12 -29.35, -3.75 -31.93, 4.1 -26.56 C11.94 -21.19, 22.21 -1.05, 30.89 10.15 C39.57 21.34, 51.6 45.58, 56.18 40.62 C60.77 35.65, 55.06 -9.17, 58.41 -19.65 C61.75 -30.14, 73.15 -28.21, 76.24 -22.3 C79.34 -16.39, 77.75 1.59, 76.98 15.8 C76.2 30.01, 75.99 54.93, 71.59 62.96 C67.19 71, 58.8 69, 50.6 64.03 C42.41 59.06, 30.75 44.23, 22.43 33.16 C14.11 22.09, 4.2 3.24, 0.67 -2.38"
                  stroke="none" stroke-width="0" fill="#ffff" fill-rule="evenodd"></path>
            <path d="M0.85 0.05 C1.26 5.27, 1.5 20.77, 1.34 31.74 C1.17 42.71, 2.8 60.35, -0.12 65.85 C-3.04 71.35, -12.86 73.33, -16.17 64.73 C-19.48 56.14, -20.34 29.01, -19.97 14.28 C-19.6 -0.44, -17.97 -17.33, -13.97 -23.63 C-9.97 -29.92, -3.21 -28.94, 4.01 -23.48 C11.23 -18.03, 20.51 -1.38, 29.36 9.1 C38.2 19.59, 52.01 44.52, 57.09 39.45 C62.17 34.38, 56.93 -10.9, 59.83 -21.32 C62.74 -31.74, 71.51 -29.52, 74.51 -23.06 C77.5 -16.61, 78.09 3.08, 77.8 17.41 C77.51 31.73, 77.21 55.13, 72.77 62.9 C68.33 70.68, 59.46 69.38, 51.17 64.05 C42.89 58.73, 31.4 41.82, 23.06 30.96 C14.72 20.1, 5.16 4.24, 1.14 -1.09 M-0.16 -0.97 C0.27 3.84, 0.9 18.38, 0.83 29.74 C0.76 41.1, 2.21 61.11, -0.56 67.17 C-3.34 73.22, -12.9 74.91, -15.82 66.08 C-18.75 57.25, -18.09 28.75, -18.13 14.19 C-18.16 -0.37, -19.82 -14.86, -16.03 -21.29 C-12.24 -27.72, -3.31 -29.46, 4.63 -24.38 C12.56 -19.3, 23.08 -1.75, 31.58 9.19 C40.08 20.13, 50.79 46.39, 55.62 41.25 C60.44 36.11, 57.38 -10.54, 60.55 -21.65 C63.71 -32.75, 71.99 -31.9, 74.62 -25.37 C77.26 -18.83, 76.71 2.95, 76.34 17.56 C75.97 32.17, 76.74 54.08, 72.4 62.31 C68.06 70.53, 58.43 71.71, 50.29 66.9 C42.16 62.1, 32.1 44.7, 23.57 33.48 C15.04 22.26, 2.91 5.3, -0.88 -0.42"
                  stroke="#000000" stroke-width="1" fill="none"></path>
        </g>
    </g>
    <mask></mask>
</svg>