<svg version="1.1" xmlns="http://www.w3.org/2000/svg" viewBox="0 0 300.4011034492901 315.45834009865246"
     width="300.4011034492901" height="315.45834009865246"><!-- svg-source:excalidraw -->
    <metadata></metadata>
    <defs>
        <style class="style-fonts">
        </style>
    </defs>
    <rect x="0" y="0" width="300.4011034492901" height="315.45834009865246" fill="#ffffff"></rect>
    <g stroke-linecap="round">
        <g transform="translate(147.02231727169328 79.07458374340769) rotate(0 -30.192122790282383 34.71405128639154)"
           fill-rule="evenodd">
            <path d="M-76.16 -48.98 C-76.16 -48.98, -76.16 -48.98, -76.16 -48.98 M-76.16 -48.98 C-76.16 -48.98, -76.16 -48.98, -76.16 -48.98 M-81.02 -37.3 C-74.45 -42.14, -69.52 -50.19, -61.34 -59.94 M-81.02 -37.3 C-74.08 -44.77, -66.32 -54.82, -61.34 -59.94 M-81.93 -30.15 C-72.64 -39.49, -65.46 -45.69, -53.72 -62.6 M-81.93 -30.15 C-70.69 -43.66, -59.73 -54.78, -53.72 -62.6 M-82.85 -23 C-70.43 -34.95, -59.11 -47.39, -47.43 -63.75 M-82.85 -23 C-71.32 -35.92, -57.98 -51.11, -47.43 -63.75 M-131.66 39.25 C-124.8 31.61, -118.78 26.83, -111.32 15.85 M-131.66 39.25 C-127.67 34.25, -123.78 29.23, -111.32 15.85 M-83.11 -16.6 C-73.13 -27.65, -62.46 -39.44, -40.47 -65.66 M-83.11 -16.6 C-68.75 -32.71, -54.52 -50.02, -40.47 -65.66 M-133.89 47.91 C-124.33 39.07, -117.88 25.45, -104.37 13.95 M-133.89 47.91 C-127.45 40.09, -122.83 33.53, -104.37 13.95 M-82.06 -11.71 C-68.14 -26.99, -51.56 -46.53, -34.83 -66.05 M-82.06 -11.71 C-66.77 -29.66, -50.58 -49.2, -34.83 -66.05 M-135.47 55.82 C-123.35 42.63, -109.55 27.32, -98.07 12.8 M-135.47 55.82 C-124.1 42.96, -112.75 28.69, -98.07 12.8 M-81.67 -6.07 C-61.11 -28.2, -40.12 -52.76, -29.18 -66.44 M-81.67 -6.07 C-61.87 -30.21, -41.26 -52.91, -29.18 -66.44 M-135.73 62.22 C-124.04 47.97, -112.51 33.82, -91.11 10.9 M-135.73 62.22 C-119.26 41.89, -100.56 22.38, -91.11 10.9 M-81.27 -0.42 C-58.45 -22.27, -39.89 -48.47, -23.54 -66.84 M-81.27 -0.42 C-58.15 -27.72, -34.48 -53.41, -23.54 -66.84 M-135.99 68.61 C-123.51 56.91, -113.38 41.94, -86.13 11.26 M-135.99 68.61 C-123.95 53.86, -110.63 39.61, -86.13 11.26 M-75.63 -0.82 C-63.93 -13.22, -49.93 -27.78, -18.55 -66.48 M-75.63 -0.82 C-55.11 -23.92, -34.84 -49.93, -18.55 -66.48 M-136.25 75.01 C-119.67 54.86, -102.84 34.92, -80.48 10.86 M-136.25 75.01 C-122.69 59.22, -108.02 41.52, -80.48 10.86 M-70.64 -0.46 C-58.89 -15.1, -46.45 -26.19, -12.91 -66.87 M-70.64 -0.46 C-56.67 -15.57, -44.17 -30.2, -12.91 -66.87 M-135.2 79.9 C-115.77 59.05, -97.81 35.48, -75.5 11.22 M-135.2 79.9 C-121.7 63.76, -106.74 47.7, -75.5 11.22 M-65.66 -0.1 C-44.41 -21.42, -26.2 -47.19, -7.27 -67.27 M-65.66 -0.1 C-46.92 -21.86, -29.05 -43.07, -7.27 -67.27 M-134.8 85.54 C-118.1 62.57, -99.03 41.36, -69.85 10.83 M-134.8 85.54 C-118.76 66.38, -102.3 47.17, -69.85 10.83 M-60.01 -0.49 C-44.46 -16.39, -28.81 -33.81, -1.62 -67.66 M-60.01 -0.49 C-38.34 -24.15, -16.94 -49.36, -1.62 -67.66 M-134.41 91.19 C-116.28 68.13, -96.92 49.66, -64.87 11.19 M-134.41 91.19 C-118.78 72.91, -104.38 56.2, -64.87 11.19 M-55.03 -0.13 C-38.06 -21.26, -20.55 -37.08, 3.36 -67.3 M-55.03 -0.13 C-40.22 -17.51, -24.7 -35.07, 3.36 -67.3 M-133.36 96.07 C-105.19 65.61, -80.53 33.71, -59.22 10.79 M-133.36 96.07 C-115.19 74.29, -98.62 53.68, -59.22 10.79 M-49.38 -0.53 C-32.36 -19.14, -15.71 -37.06, 9.01 -67.7 M-49.38 -0.53 C-32.07 -20.78, -14.49 -39.89, 9.01 -67.7 M-132.96 101.72 C-107.22 70.34, -84.7 42.08, -54.24 11.15 M-132.96 101.72 C-107.61 71.44, -80.48 41.16, -54.24 11.15 M-44.4 -0.17 C-24.3 -25.42, -1.33 -50.09, 14.65 -68.09 M-44.4 -0.17 C-23.81 -23.92, -2.36 -47.91, 14.65 -68.09 M-132.57 107.36 C-107.02 74.98, -81.2 47.12, -48.59 10.76 M-132.57 107.36 C-111.59 82.97, -89.59 58.8, -48.59 10.76 M-39.41 0.19 C-19.13 -21.31, -1.56 -42.31, 19.64 -67.73 M-39.41 0.19 C-22.89 -19.56, -6.91 -38.26, 19.64 -67.73 M-130.86 111.49 C-95.7 75.65, -63.25 36.77, -43.61 11.12 M-130.86 111.49 C-106.79 82.71, -80.34 54.91, -43.61 11.12 M-33.77 -0.2 C-18.31 -18.51, 0.59 -38.73, 24.62 -67.37 M-33.77 -0.2 C-12.66 -23.17, 6.99 -48.41, 24.62 -67.37 M-129.16 115.63 C-96.91 80.97, -68.49 41.95, -37.96 10.72 M-129.16 115.63 C-104.12 85.59, -78.84 58.22, -37.96 10.72 M-28.78 0.16 C-16.19 -16.69, -2.84 -30.91, 29.61 -67.01 M-28.78 0.16 C-5.77 -26.04, 15.75 -52.23, 29.61 -67.01 M-127.45 119.76 C-92.76 81.9, -60.47 47.79, -32.98 11.08 M-127.45 119.76 C-93.66 79.2, -57.15 39.27, -32.98 11.08 M-23.14 -0.24 C-9.63 -16.39, 6.01 -32.73, 34.6 -66.65 M-23.14 -0.24 C-12.15 -14.63, 1.46 -27.91, 34.6 -66.65 M-125.09 123.14 C-96.03 90.5, -70.6 60.43, -27.33 10.69 M-125.09 123.14 C-95.39 90.11, -67.72 57.87, -27.33 10.69 M-18.15 0.12 C-2.05 -19.42, 14.74 -38.31, 39.58 -66.29 M-18.15 0.12 C-6.81 -12.98, 6.49 -27.38, 39.58 -66.29 M-122.07 125.76 C-90.15 85.14, -52.6 47.94, -22.35 11.05 M-122.07 125.76 C-95.93 96.64, -71.22 66.34, -22.35 11.05 M-13.16 0.48 C0.49 -15.71, 13.2 -30.19, 43.91 -65.18 M-13.16 0.48 C-1.65 -13.14, 10.36 -27.61, 43.91 -65.18 M-119.05 128.39 C-84.77 88.55, -48.53 46.67, -16.7 10.65 M-119.05 128.39 C-91.02 97.75, -66.63 67.64, -16.7 10.65 M-7.52 0.09 C2.91 -15.5, 17.42 -28.52, 48.25 -64.06 M-7.52 0.09 C11.86 -23.69, 32.05 -46.02, 48.25 -64.06 M-116.03 131.01 C-79.25 88.53, -41.74 45.54, -11.06 10.26 M-116.03 131.01 C-77.1 86.85, -37.89 42.23, -11.06 10.26 M-2.53 0.45 C13.47 -15.67, 28.24 -33.03, 52.58 -62.95 M-2.53 0.45 C11.04 -15.37, 23.54 -29.72, 52.58 -62.95 M-112.36 132.88 C-87.47 103.67, -67.09 76.55, -6.07 10.62 M-112.36 132.88 C-82.79 99.26, -53.5 63.46, -6.07 10.62 M0.49 3.07 C16.3 -15.85, 34.39 -36.93, 56.25 -61.08 M0.49 3.07 C21.02 -21.51, 42.32 -45.98, 56.25 -61.08 M-108.68 134.75 C-54.57 71.45, 2.9 5.95, 59.27 -58.45 M-108.68 134.75 C-53.1 69.98, 2.34 5.75, 59.27 -58.45 M-104.35 135.87 C-91.51 120.98, -83.25 108.39, -72.86 99.64 M-104.35 135.87 C-93.89 122.47, -82.49 110.92, -72.86 99.64 M-55.8 80.02 C-29.57 51.58, -2.96 18.17, 62.95 -56.58 M-55.8 80.02 C-23.56 42.88, 10.02 4.56, 62.95 -56.58 M-100.02 136.98 C-93.81 127.67, -83.14 119.21, -76.4 109.81 M-100.02 136.98 C-93.75 131.18, -87.64 123.6, -76.4 109.81 M-48.19 77.36 C-12.52 34.46, 24.68 -3.12, 65.31 -53.2 M-48.19 77.36 C-9.96 33.13, 28.25 -8.11, 65.31 -53.2 M-95.03 137.34 C-91.62 131.17, -87.11 129.81, -76.66 116.21 M-95.03 137.34 C-87.82 128.29, -81.18 121.13, -76.66 116.21 M-41.24 75.46 C-13.93 44.52, 14.8 14.11, 68.33 -50.58 M-41.24 75.46 C-7.31 36.87, 26.59 -2.42, 68.33 -50.58 M-90.04 137.7 C-88.33 135.06, -84.83 127.76, -76.92 122.61 M-90.04 137.7 C-87.26 134.25, -83.27 129.63, -76.92 122.61 M-35.59 75.06 C-0.76 35.64, 34.1 -4.95, 71.35 -47.96 M-35.59 75.06 C-1.43 36.26, 33.21 -1.06, 71.35 -47.96 M-84.4 137.31 C-82.48 133.84, -80.36 131.73, -77.19 129.01 M-84.4 137.31 C-81.86 134.95, -79.28 131, -77.19 129.01 M-29.95 74.67 C-3.42 42.76, 22.7 15.34, 73.05 -43.82 M-29.95 74.67 C-5.12 47.53, 18.53 19.84, 73.05 -43.82 M-24.96 75.03 C7.85 37.09, 40.91 0.75, 74.1 -38.93 M-24.96 75.03 C5.75 39.63, 36.83 4.31, 74.1 -38.93 M-19.32 74.63 C1.72 50.56, 24.7 26.42, 75.15 -34.05 M-19.32 74.63 C1.7 48.78, 25.55 23.72, 75.15 -34.05 M-14.33 74.99 C17.37 40.5, 46.71 4.56, 76.86 -29.91 M-14.33 74.99 C5.43 51.24, 26.72 28.39, 76.86 -29.91 M-8.69 74.6 C7.39 52.03, 29.11 31.46, 77.26 -24.27 M-8.69 74.6 C14.73 46.72, 38.72 20.03, 77.26 -24.27 M-3.7 74.96 C20.54 44.42, 47.94 13.04, 76.99 -17.87 M-3.7 74.96 C19.07 49.06, 42.8 22.05, 76.99 -17.87 M1.29 75.32 C22.85 50.14, 48.11 24.08, 77.39 -12.23 M1.29 75.32 C15.99 58.09, 31.27 39.25, 77.39 -12.23 M6.93 74.92 C24.59 52.06, 44.62 31.13, 77.13 -5.83 M6.93 74.92 C30.56 45.19, 56.58 16.84, 77.13 -5.83 M11.92 75.28 C32.47 50.92, 53.4 27.07, 76.87 0.57 M11.92 75.28 C27.3 58.14, 43.75 39.93, 76.87 0.57 M17.56 74.89 C37.25 52.64, 53.79 31.06, 77.26 6.21 M17.56 74.89 C29.98 61.21, 42.97 46.35, 77.26 6.21 M22.55 75.25 C38.32 59.63, 50.9 44.18, 77 12.61 M22.55 75.25 C37.96 57.51, 55.35 38.87, 77 12.61 M28.19 74.85 C40.84 61.24, 53.21 49.33, 76.74 19.01 M28.19 74.85 C41.41 58.39, 54.55 44.13, 76.74 19.01 M34.49 73.71 C42.59 64.97, 53.12 50.72, 77.13 24.65 M34.49 73.71 C45.97 60.49, 59.49 46.69, 77.13 24.65 M40.79 72.56 C54.32 54.14, 69.74 41.89, 76.21 31.8 M40.79 72.56 C51.59 60.77, 62.44 47.22, 76.21 31.8 M47.09 71.41 C54.01 65.17, 58.76 57.28, 75.3 38.95 M47.09 71.41 C57.19 58.5, 68.29 46.26, 75.3 38.95 M56.01 67.24 C59.93 62.72, 63.85 55.25, 73.07 47.62 M56.01 67.24 C60.97 62.22, 65.48 55.97, 73.07 47.62"
                  stroke="#228be6" stroke-width="0.5" fill="none"></path>
            <path d="M-1.11 0.46 C-13.02 0.24, -57.87 -0.99, -71.48 -1.77 C-85.09 -2.54, -81.04 1.84, -82.78 -4.18 C-84.52 -10.21, -84.3 -28.97, -81.92 -37.9 C-79.54 -46.83, -75.53 -53.04, -68.5 -57.77 C-61.48 -62.5, -51.08 -64.51, -39.77 -66.29 C-28.45 -68.06, -13.31 -68.11, -0.61 -68.41 C12.1 -68.71, 26.34 -69.85, 36.47 -68.08 C46.61 -66.3, 53.79 -63.03, 60.2 -57.79 C66.62 -52.54, 72.36 -47.11, 74.95 -36.63 C77.55 -26.14, 76.09 -8.37, 75.77 5.13 C75.46 18.63, 75.55 34.45, 73.05 44.37 C70.55 54.29, 67.2 59.6, 60.79 64.64 C54.38 69.68, 45.73 73.17, 34.59 74.6 C23.46 76.03, 6.92 72.97, -6.02 73.22 C-18.95 73.48, -32.8 73.92, -43.02 76.12 C-53.25 78.32, -61.97 81.26, -67.37 86.43 C-72.77 91.61, -73.96 100.07, -75.42 107.15 C-76.89 114.23, -75.48 123.9, -76.16 128.91 C-76.83 133.92, -75.06 136.07, -79.46 137.22 C-83.87 138.37, -95.28 137.54, -102.59 135.84 C-109.91 134.14, -118.13 131.86, -123.36 127.03 C-128.58 122.19, -131.68 116.22, -133.96 106.83 C-136.23 97.45, -137.2 82.18, -137 70.71 C-136.79 59.25, -135.67 46.69, -132.74 38.03 C-129.82 29.38, -125.99 23.51, -119.45 18.79 C-112.91 14.08, -106.4 11.1, -93.5 9.75 C-80.59 8.39, -56.2 10.72, -42.02 10.66 C-27.83 10.59, -15.61 9.7, -8.39 9.35 C-1.17 8.99, -0.15 10.14, 1.29 8.53 C2.73 6.91, 0.53 1, 0.27 -0.35 M0.51 -0.35 C-11.52 -0.4, -58.17 0.23, -72.22 -0.73 C-86.27 -1.7, -82.18 -0.03, -83.81 -6.12 C-85.43 -12.21, -84.27 -28.69, -81.99 -37.27 C-79.7 -45.85, -76.82 -52.58, -70.09 -57.6 C-63.36 -62.61, -52.77 -65.92, -41.62 -67.37 C-30.46 -68.82, -16.1 -66.05, -3.17 -66.29 C9.75 -66.53, 25.07 -70.04, 35.93 -68.81 C46.78 -67.58, 55.36 -64.25, 61.97 -58.91 C68.58 -53.56, 73.3 -47.57, 75.58 -36.75 C77.86 -25.93, 75.76 -7.45, 75.66 6.03 C75.55 19.51, 77.31 34.54, 74.95 44.12 C72.59 53.7, 68.3 58.41, 61.5 63.5 C54.7 68.59, 45.29 72.61, 34.14 74.66 C22.98 76.71, 7.36 75.89, -5.43 75.79 C-18.21 75.69, -32.55 72.13, -42.57 74.04 C-52.6 75.94, -59.95 81.7, -65.55 87.2 C-71.15 92.7, -74.28 100.05, -76.19 107.02 C-78.1 113.99, -76.03 124.19, -77.02 129.02 C-78 133.85, -77.68 134.51, -82.1 135.99 C-86.52 137.47, -96.62 139.53, -103.53 137.91 C-110.44 136.28, -118.41 131.53, -123.57 126.23 C-128.74 120.92, -132.54 115.45, -134.53 106.09 C-136.52 96.73, -136.04 81.47, -135.5 70.08 C-134.95 58.69, -134.08 46.36, -131.28 37.75 C-128.48 29.13, -125.18 22.59, -118.69 18.38 C-112.19 14.16, -104.77 13.97, -92.31 12.45 C-79.85 10.94, -57.98 9.64, -43.9 9.28 C-29.83 8.93, -15.18 10.71, -7.88 10.33 C-0.58 9.95, -1.42 8.52, -0.1 7.02 C1.22 5.51, 0.1 2.63, 0.04 1.29"
                  stroke="#000000" stroke-width="1" fill="none"></path>
        </g>
    </g>
    <mask></mask>
    <g stroke-linecap="round">
        <g transform="translate(214.5508809244825 167.0541615195188) rotate(180 -31.62826929703749 34.79785947990449)"
           fill-rule="evenodd">
            <path d="M-77.46 -48.79 C-77.46 -48.79, -77.46 -48.79, -77.46 -48.79 M-77.46 -48.79 C-77.46 -48.79, -77.46 -48.79, -77.46 -48.79 M-82.31 -37.1 C-74.25 -46.1, -65.47 -55.94, -62.63 -59.75 M-82.31 -37.1 C-76.67 -44.4, -71.68 -50.67, -62.63 -59.75 M-83.89 -29.2 C-73.24 -38.5, -64.16 -51.6, -54.37 -63.16 M-83.89 -29.2 C-72.55 -41.2, -61.09 -55.15, -54.37 -63.16 M-128.11 27.77 C-128.11 27.77, -128.11 27.77, -128.11 27.77 M-128.11 27.77 C-128.11 27.77, -128.11 27.77, -128.11 27.77 M-83.49 -23.55 C-71.18 -35.52, -62.72 -51.6, -48.07 -64.31 M-83.49 -23.55 C-70.71 -39.1, -57.45 -53.85, -48.07 -64.31 M-134.93 41.71 C-125.63 32.31, -117.17 20.74, -112.62 16.05 M-134.93 41.71 C-130.05 34.97, -124.75 30.29, -112.62 16.05 M-83.76 -17.16 C-68.88 -38.52, -52.31 -54.86, -41.11 -66.21 M-83.76 -17.16 C-68.82 -35.59, -51.5 -54.99, -41.11 -66.21 M-136.5 49.62 C-125.75 37.1, -115.12 27.54, -105.01 13.39 M-136.5 49.62 C-127.88 38.87, -117.48 28.89, -105.01 13.39 M-84.02 -10.76 C-73.84 -21.34, -63.33 -35.87, -35.47 -66.61 M-84.02 -10.76 C-70.63 -27.44, -55.51 -43.02, -35.47 -66.61 M-137.42 56.77 C-125.15 43.18, -110.25 26.63, -98.06 11.49 M-137.42 56.77 C-123.83 41.35, -110.81 27.41, -98.06 11.49 M-82.97 -5.87 C-73.75 -17.86, -59.39 -29.19, -29.83 -67 M-82.97 -5.87 C-71.55 -17.58, -60.55 -31.07, -29.83 -67 M-138.34 63.92 C-129.16 50.97, -116.39 38.1, -92.41 11.09 M-138.34 63.92 C-120.66 44.6, -104.97 24.41, -92.41 11.09 M-82.57 -0.23 C-69.33 -17.52, -55.69 -30.85, -24.18 -67.4 M-82.57 -0.23 C-59.02 -26.16, -37.42 -53.43, -24.18 -67.4 M-138.6 70.32 C-119.28 50.57, -101.47 30.46, -87.43 11.45 M-138.6 70.32 C-125.48 52.99, -110.63 37.68, -87.43 11.45 M-76.93 -0.62 C-58.18 -23.41, -39.74 -43.65, -19.2 -67.04 M-76.93 -0.62 C-56.02 -25.33, -37 -46.93, -19.2 -67.04 M-138.2 75.96 C-125.87 64.27, -115.78 47.67, -81.78 11.06 M-138.2 75.96 C-120.6 55.7, -102.2 35.26, -81.78 11.06 M-71.94 -0.26 C-53.95 -22.27, -36.4 -43.78, -13.55 -67.43 M-71.94 -0.26 C-53.59 -20.46, -35.39 -41.24, -13.55 -67.43 M-137.81 81.61 C-125.7 64.65, -110.92 52.33, -76.8 11.42 M-137.81 81.61 C-122.45 63.38, -105.27 43.81, -76.8 11.42 M-66.3 -0.66 C-43.7 -28.04, -21.79 -51.34, -8.57 -67.07 M-66.3 -0.66 C-47.87 -22.28, -30.52 -42.87, -8.57 -67.07 M-137.41 87.25 C-111.88 59.67, -88.53 30.89, -71.15 11.02 M-137.41 87.25 C-119.32 66.07, -102.56 45.32, -71.15 11.02 M-61.31 -0.3 C-39.52 -23.32, -19.25 -50.06, -2.92 -67.47 M-61.31 -0.3 C-39.27 -25.78, -17.12 -51.78, -2.92 -67.47 M-137.02 92.89 C-113.61 69.15, -92.31 43.04, -66.17 11.38 M-137.02 92.89 C-112.43 65.05, -88.16 36.51, -66.17 11.38 M-56.32 0.06 C-44.35 -16.59, -31.6 -29.88, 2.07 -67.11 M-56.32 0.06 C-37.37 -23.51, -16.56 -46.26, 2.07 -67.11 M-135.97 97.78 C-107.16 66.44, -80.93 32.09, -60.52 10.99 M-135.97 97.78 C-111.91 71.02, -88.69 45.31, -60.52 10.99 M-50.68 -0.33 C-32.32 -24.14, -9.15 -48.18, 7.71 -67.5 M-50.68 -0.33 C-27.65 -26.21, -6.22 -49.84, 7.71 -67.5 M-135.57 103.42 C-112.83 77.83, -92.21 54.81, -55.53 11.35 M-135.57 103.42 C-112.86 77.93, -90.92 53.22, -55.53 11.35 M-45.69 0.03 C-29.22 -18.77, -11.46 -41.76, 12.7 -67.14 M-45.69 0.03 C-29.06 -18.53, -12.93 -36.74, 12.7 -67.14 M-133.87 107.56 C-104.62 74.14, -75.45 39.46, -49.89 10.96 M-133.87 107.56 C-107.26 76.57, -78.5 44.47, -49.89 10.96 M-40.05 -0.37 C-25.63 -16.2, -12.67 -34.07, 17.68 -66.78 M-40.05 -0.37 C-15.96 -25.67, 5.66 -52.95, 17.68 -66.78 M-132.82 112.45 C-106.76 83.58, -81.43 55.46, -44.25 10.56 M-132.82 112.45 C-113.31 87.42, -91.49 65.08, -44.25 10.56 M-35.06 -0.01 C-19.49 -22.02, -0.22 -40.09, 23.33 -67.17 M-35.06 -0.01 C-16.89 -19.38, -0.43 -40.36, 23.33 -67.17 M-131.11 116.58 C-107.18 88.95, -80.25 59.24, -39.26 10.92 M-131.11 116.58 C-98.8 77.96, -64.65 39.68, -39.26 10.92 M-30.08 0.35 C-14.66 -14.21, -0.53 -30.8, 28.31 -66.81 M-30.08 0.35 C-9.41 -21.5, 8.79 -44.13, 28.31 -66.81 M-128.75 119.96 C-106.12 95.27, -86.54 69.51, -33.62 10.53 M-128.75 119.96 C-93.4 81.74, -61.09 42.87, -33.62 10.53 M-24.43 -0.04 C-3.42 -24.61, 16.72 -49.02, 33.96 -67.21 M-24.43 -0.04 C-12.37 -14.51, 1.59 -30.82, 33.96 -67.21 M-126.38 123.34 C-100.18 92.77, -73.44 61.79, -28.63 10.89 M-126.38 123.34 C-101.42 95.58, -78.36 69.29, -28.63 10.89 M-19.45 0.32 C5.23 -23.76, 25.19 -51.4, 38.94 -66.85 M-19.45 0.32 C-4.55 -18.54, 10.84 -35.87, 38.94 -66.85 M-124.02 126.72 C-84.64 81.49, -45.23 35.31, -22.99 10.49 M-124.02 126.72 C-88.9 85.61, -54.3 47.02, -22.99 10.49 M-13.8 -0.07 C10.3 -27.1, 30.83 -54.66, 43.27 -65.73 M-13.8 -0.07 C6.77 -25.36, 28.62 -50.81, 43.27 -65.73 M-120.35 128.59 C-78.84 83.06, -40.48 40.6, -18 10.85 M-120.35 128.59 C-82.18 85.58, -44.88 42.77, -18 10.85 M-8.82 0.29 C10.44 -21.98, 28.31 -39.33, 47.6 -64.62 M-8.82 0.29 C4.72 -14.46, 17.13 -30.46, 47.6 -64.62 M-117.33 131.21 C-85.28 94.93, -57.31 59.79, -12.36 10.46 M-117.33 131.21 C-86.66 95.83, -56.38 60.72, -12.36 10.46 M-3.83 0.65 C15.6 -24.57, 38.47 -48.27, 51.28 -62.75 M-3.83 0.65 C13.01 -20.37, 31.18 -39.77, 51.28 -62.75 M-113.65 133.08 C-90.98 106.35, -67.95 84.78, -7.37 10.82 M-113.65 133.08 C-80.32 94.84, -46.34 57.19, -7.37 10.82 M0.5 1.76 C19.3 -18.41, 36.17 -37.64, 54.95 -60.88 M0.5 1.76 C13.6 -14.14, 29.29 -30.4, 54.95 -60.88 M-109.98 134.95 C-84.94 102.81, -54.05 73.47, -1.73 10.42 M-109.98 134.95 C-79.87 102.04, -50.74 67.82, -1.73 10.42 M0.24 8.16 C20.87 -16.2, 37.88 -37.15, 58.63 -59.01 M0.24 8.16 C20.1 -14.33, 39.42 -36.82, 58.63 -59.01 M-105.65 136.06 C-93.43 124.08, -84.82 112.57, -78.09 104.37 M-105.65 136.06 C-98.59 128.42, -93.01 120.79, -78.09 104.37 M-59.72 83.23 C-22.73 44.93, 13.21 0.4, 61.65 -56.39 M-59.72 83.23 C-18.92 39.2, 19.24 -8.18, 61.65 -56.39 M-101.32 137.18 C-96.13 132.81, -89.01 126.88, -79.67 112.27 M-101.32 137.18 C-94.99 129.94, -88.36 121.04, -79.67 112.27 M-50.8 79.07 C-23.23 49.47, 2.43 19.89, 64.67 -53.76 M-50.8 79.07 C-16.45 38.97, 17.34 -0.38, 64.67 -53.76 M-96.33 137.54 C-94.57 131.66, -90.16 128.46, -80.58 119.43 M-96.33 137.54 C-92.53 132.8, -88.33 127.85, -80.58 119.43 M-43.19 76.41 C-2.32 29.12, 41.03 -21.6, 67.69 -51.14 M-43.19 76.41 C-18.42 50.75, 5.36 22.54, 67.69 -51.14 M-91.34 137.9 C-89.26 134.23, -85.63 133.62, -80.85 125.82 M-91.34 137.9 C-88.91 134.41, -87.02 132.96, -80.85 125.82 M-37.55 76.01 C-2.6 38.28, 30.77 -4.78, 70.05 -47.76 M-37.55 76.01 C-7.38 40.76, 24.23 4.71, 70.05 -47.76 M-85.04 136.75 C-83.5 135.61, -82.52 134.38, -81.76 132.98 M-85.04 136.75 C-84.2 136.02, -83.62 135.1, -81.76 132.98 M-31.9 75.62 C1.88 39.64, 31.04 2.09, 72.41 -44.38 M-31.9 75.62 C-3.1 45.06, 23.72 13.79, 72.41 -44.38 M-26.26 75.22 C-3.12 47.1, 18.4 20.53, 73.46 -39.49 M-26.26 75.22 C14.07 30.62, 52.25 -14.35, 73.46 -39.49 M-20.62 74.83 C8.97 43.78, 35.28 12.99, 74.51 -34.6 M-20.62 74.83 C9.95 40.54, 40.27 6, 74.51 -34.6 M-14.97 74.43 C20.3 33.58, 55.14 -7.73, 74.91 -28.96 M-14.97 74.43 C14.81 40.58, 44.07 6.74, 74.91 -28.96 M-9.33 74.04 C15.48 48.13, 36.44 19.19, 75.3 -23.32 M-9.33 74.04 C23.14 35.54, 55.96 -0.92, 75.3 -23.32 M-3.69 73.65 C21.29 45.82, 44.04 22.35, 75.7 -17.67 M-3.69 73.65 C28.19 38.38, 58.3 3.73, 75.7 -17.67 M1.3 74.01 C15.76 56.85, 32.06 36.46, 75.43 -11.28 M1.3 74.01 C17.75 55.68, 32.44 39.84, 75.43 -11.28 M6.29 74.37 C18.33 58.27, 32.51 42.77, 75.83 -5.63 M6.29 74.37 C28.92 48.71, 49.8 23.33, 75.83 -5.63 M11.27 74.73 C29.03 55, 46.86 32.59, 75.57 0.76 M11.27 74.73 C30.3 54.22, 47.11 33.67, 75.57 0.76 M16.92 74.33 C33.5 58.32, 46.98 37.61, 75.96 6.41 M16.92 74.33 C36.53 52.09, 56.37 28.16, 75.96 6.41 M21.9 74.69 C33.28 59.37, 44.51 47.86, 75.7 12.81 M21.9 74.69 C40.67 54.9, 58.49 33.98, 75.7 12.81 M26.89 75.05 C47.22 55.34, 65.57 29.97, 75.44 19.2 M26.89 75.05 C39.13 60.02, 51.29 45.22, 75.44 19.2 M32.53 74.66 C46 57.94, 64.84 39.07, 75.83 24.85 M32.53 74.66 C41.68 63.85, 51.21 52.72, 75.83 24.85 M37.52 75.02 C44.43 63.87, 54.84 53.58, 75.57 31.24 M37.52 75.02 C50.64 59.27, 65.49 42.97, 75.57 31.24 M43.16 74.62 C50.3 68.56, 58.46 58.42, 74.66 38.4 M43.16 74.62 C50.64 65.25, 57.5 57.83, 74.66 38.4 M49.46 73.47 C58.27 64.45, 68.6 54.75, 73.74 45.55 M49.46 73.47 C58.39 64.09, 66.51 54.72, 73.74 45.55 M58.39 69.31 C61.46 66.33, 66.92 58.26, 70.85 54.97 M58.39 69.31 C60.76 65.35, 65 63.27, 70.85 54.97"
                  stroke="#fab005" stroke-width="0.5" fill="none"></path>
            <path d="M0.4 -0.96 C-11.65 -1.04, -59.35 0.79, -73.43 -0.03 C-87.52 -0.85, -82.55 0.36, -84.1 -5.87 C-85.65 -12.1, -85.34 -28.8, -82.75 -37.4 C-80.15 -45.99, -75.61 -52.58, -68.53 -57.44 C-61.44 -62.3, -51.58 -64.68, -40.26 -66.57 C-28.93 -68.47, -13.23 -68.76, -0.58 -68.8 C12.07 -68.84, 25.6 -68.68, 35.67 -66.82 C45.74 -64.96, 53.6 -62.55, 59.84 -57.65 C66.09 -52.75, 70.67 -48.26, 73.15 -37.42 C75.63 -26.58, 74.46 -6.44, 74.73 7.41 C75 21.25, 77.09 35.51, 74.76 45.67 C72.44 55.83, 67.29 63.67, 60.77 68.39 C54.24 73.11, 47.01 73, 35.6 74 C24.18 75.01, 5.64 74.09, -7.73 74.42 C-21.09 74.75, -34.92 73.92, -44.59 75.98 C-54.26 78.04, -60.04 81.62, -65.75 86.78 C-71.47 91.94, -76.34 99.99, -78.89 106.93 C-81.43 113.88, -80.14 123.72, -81.02 128.46 C-81.91 133.21, -80.15 133.86, -84.21 135.39 C-88.26 136.93, -98.51 139.19, -105.35 137.66 C-112.19 136.13, -120.3 131.32, -125.26 126.22 C-130.22 121.12, -132.81 116.59, -135.11 107.08 C-137.42 97.56, -139.11 80.54, -139.11 69.13 C-139.1 57.72, -138.11 47.1, -135.09 38.63 C-132.07 30.16, -127.88 22.9, -120.97 18.32 C-114.06 13.75, -106.69 12.73, -93.63 11.19 C-80.56 9.65, -56.85 9.25, -42.6 9.08 C-28.36 8.9, -15.31 10.23, -8.14 10.14 C-0.98 10.04, -0.91 10.11, 0.41 8.5 C1.73 6.89, -0.18 2, -0.25 0.47 M-0.84 1.15 C-13 0.69, -60.58 -0.72, -74.64 -1.75 C-88.69 -2.78, -83.85 0.77, -85.18 -5.03 C-86.51 -10.82, -85.21 -27.83, -82.62 -36.51 C-80.02 -45.19, -76.36 -51.87, -69.6 -57.09 C-62.84 -62.31, -53.13 -66.17, -42.06 -67.81 C-30.98 -69.44, -15.87 -67.04, -3.12 -66.89 C9.63 -66.74, 23.62 -68.27, 34.42 -66.9 C45.22 -65.54, 55.18 -63.53, 61.69 -58.7 C68.2 -53.88, 71.31 -49.16, 73.48 -37.95 C75.65 -26.74, 74.64 -5.25, 74.7 8.57 C74.76 22.38, 76.07 35.06, 73.83 44.93 C71.59 54.81, 67.69 63.09, 61.24 67.81 C54.8 72.53, 46.69 72.21, 35.15 73.27 C23.62 74.34, 5.23 73.53, -7.98 74.19 C-21.2 74.85, -34.4 75.11, -44.15 77.25 C-53.9 79.39, -60.57 82.04, -66.49 87.02 C-72.4 92.01, -77.08 100.72, -79.65 107.15 C-82.21 113.58, -81.22 120.66, -81.87 125.61 C-82.53 130.56, -80 134.96, -83.57 136.86 C-87.14 138.77, -96.29 139, -103.28 137.03 C-110.27 135.05, -120.19 130.09, -125.52 124.99 C-130.86 119.9, -133.25 115.41, -135.27 106.46 C-137.29 97.52, -137.9 82.63, -137.66 71.32 C-137.42 60.02, -136.76 47.59, -133.83 38.65 C-130.9 29.71, -126.48 22.27, -120.08 17.66 C-113.69 13.05, -108.05 12.19, -95.44 11 C-82.84 9.81, -58.52 10.44, -44.46 10.53 C-30.4 10.62, -18.27 11.52, -11.1 11.54 C-3.93 11.55, -3.16 12.74, -1.44 10.63 C0.28 8.52, -0.97 0.49, -0.76 -1.13"
                  stroke="#000000" stroke-width="1" fill="none"></path>
        </g>
    </g>
    <mask></mask>
    <g stroke-linecap="round"
       transform="translate(81.46457676684463 34.820358918259416) rotate(0 13.444490555771381 13.444490555771397)">
        <path d="M12.46 -0.33 C15.15 -0.56, 19.28 1.4, 21.55 3.15 C23.81 4.91, 25.38 7.45, 26.05 10.21 C26.71 12.98, 26.7 17.17, 25.52 19.73 C24.34 22.29, 21.68 24.57, 18.96 25.59 C16.24 26.62, 11.94 26.67, 9.19 25.86 C6.43 25.05, 3.97 23.08, 2.44 20.75 C0.91 18.43, -0.37 14.74, 0.02 11.93 C0.4 9.11, 2.48 5.84, 4.75 3.87 C7.03 1.9, 12.16 0.64, 13.66 0.1 C15.15 -0.44, 13.81 0.43, 13.71 0.62 M11.4 -0.26 C13.9 -0.72, 17.75 0.76, 20.36 2.35 C22.97 3.95, 26.04 6.5, 27.05 9.32 C28.06 12.15, 27.59 16.68, 26.42 19.28 C25.25 21.89, 22.62 23.73, 20.03 24.94 C17.43 26.15, 13.83 27.12, 10.84 26.54 C7.85 25.95, 3.78 23.72, 2.07 21.42 C0.37 19.12, 0.36 15.64, 0.62 12.71 C0.88 9.78, 1.67 5.87, 3.62 3.83 C5.58 1.79, 10.9 0.95, 12.35 0.48 C13.8 0.01, 12.32 0.95, 12.33 1.02"
              stroke="none" stroke-width="0" fill="#ffffff"></path>
        <path d="M11.61 0.42 C14.36 -0.02, 18.29 0.94, 20.71 2.51 C23.13 4.09, 25.34 7.2, 26.14 9.86 C26.94 12.53, 26.58 15.92, 25.52 18.49 C24.46 21.07, 22.25 24.01, 19.78 25.3 C17.31 26.58, 13.57 26.87, 10.71 26.21 C7.86 25.54, 4.42 23.46, 2.66 21.28 C0.9 19.11, 0.04 15.95, 0.16 13.15 C0.27 10.35, 1.27 6.64, 3.34 4.49 C5.41 2.34, 11.03 1.03, 12.57 0.25 C14.1 -0.53, 12.52 -0.3, 12.55 -0.19 M14.17 -0.18 C16.91 -0.12, 20.68 2.05, 22.8 3.86 C24.92 5.68, 26.6 7.88, 26.88 10.72 C27.15 13.56, 26.04 18.31, 24.44 20.9 C22.85 23.49, 19.94 25.35, 17.3 26.26 C14.65 27.17, 11.23 27.49, 8.6 26.35 C5.97 25.2, 3.01 22.01, 1.53 19.4 C0.06 16.79, -0.75 13.52, -0.25 10.7 C0.26 7.88, 2.18 4.21, 4.55 2.48 C6.92 0.74, 12.41 0.78, 13.99 0.29 C15.57 -0.19, 13.97 -0.57, 14.02 -0.42"
              stroke="#000000" stroke-width="1" fill="none"></path>
    </g>
    <g stroke-linecap="round"
       transform="translate(186.5284056610244 249.79061921652743) rotate(0 14.357448744050203 14.35744874405016)">
        <path d="M14.26 0.45 C17.14 0.26, 20.62 1.17, 23 3.08 C25.39 5, 27.89 8.91, 28.57 11.94 C29.26 14.96, 28.7 18.64, 27.11 21.21 C25.52 23.79, 21.93 26.26, 19.04 27.37 C16.16 28.48, 12.68 28.81, 9.82 27.87 C6.96 26.94, 3.42 24.36, 1.9 21.75 C0.37 19.15, 0.08 15.27, 0.68 12.24 C1.27 9.2, 3.11 5.51, 5.49 3.53 C7.86 1.55, 13.28 0.91, 14.91 0.36 C16.55 -0.19, 15.35 -0.03, 15.3 0.23 M13.99 0.07 C17.13 -0.08, 21.9 1.04, 24.43 3.11 C26.97 5.17, 28.73 9.46, 29.21 12.47 C29.7 15.47, 28.93 18.56, 27.35 21.14 C25.76 23.72, 22.8 26.84, 19.69 27.96 C16.59 29.07, 11.62 28.9, 8.74 27.82 C5.86 26.75, 3.85 24.27, 2.41 21.53 C0.98 18.79, -0.41 14.35, 0.13 11.37 C0.66 8.38, 3.17 5.41, 5.63 3.63 C8.08 1.85, 13.32 1.32, 14.85 0.68 C16.39 0.04, 14.83 -0.27, 14.82 -0.22"
              stroke="none" stroke-width="0" fill="#ffffff"></path>
        <path d="M13.65 0.37 C16.56 0.06, 20.51 1.54, 22.91 3.32 C25.31 5.09, 27.31 8.11, 28.05 11.03 C28.78 13.95, 28.64 18.13, 27.32 20.83 C26.01 23.54, 23.04 26.1, 20.16 27.26 C17.28 28.42, 12.98 28.58, 10.02 27.79 C7.06 27, 4.11 25, 2.41 22.49 C0.72 19.98, -0.53 15.81, -0.13 12.73 C0.27 9.65, 2.54 6.21, 4.82 4.01 C7.1 1.81, 11.94 0.24, 13.56 -0.46 C15.18 -1.16, 14.47 -0.57, 14.55 -0.18 M12.14 0.94 C14.9 0.13, 18.9 -0.21, 21.39 1.26 C23.89 2.73, 26.13 6.79, 27.12 9.76 C28.11 12.72, 28.22 16.21, 27.31 19.07 C26.41 21.93, 24.24 25.44, 21.69 26.91 C19.14 28.37, 15.1 28.43, 12.01 27.87 C8.91 27.31, 5.19 25.84, 3.13 23.55 C1.08 21.26, -0.39 17.09, -0.32 14.12 C-0.25 11.14, 1.53 8.13, 3.58 5.71 C5.63 3.29, 10.53 0.48, 11.98 -0.41 C13.43 -1.3, 12.28 0.06, 12.28 0.37"
              stroke="#000000" stroke-width="1" fill="none"></path>
    </g>
</svg>