<svg version="1.1" xmlns="http://www.w3.org/2000/svg" viewBox="0 0 347.993006341268 278.15276010556147"
     width="347.993006341268" height="278.15276010556147"><!-- svg-source:excalidraw -->
    <metadata></metadata>
    <defs>
        <style class="style-fonts">
        </style>
    </defs>
    <rect x="0" y="0" width="347.993006341268" height="278.15276010556147" fill="#ffffff"></rect>
    <g stroke-linecap="round"
       transform="translate(16.454544802806595 113.57287449392697) rotate(0 160.76923076923072 66.15384615384613)">
        <path d="M160.84 0.21 L321.6 68.07 L162.5 131.93 L-0.47 65.09" stroke="none" stroke-width="0" fill="#c6302b"
              fill-rule="evenodd"></path>
        <path d="M161 0 C203.54 18.43, 244.42 36.57, 321.54 67 M161 0 C217.03 24.41, 271.68 47.59, 321.54 67 M321.54 67 C271.38 88.16, 217.01 109.79, 161 132.31 M321.54 67 C285.28 82.32, 249.6 96.3, 161 132.31 M161 132.31 C112.47 111.84, 68.25 93.34, 0 67 M161 132.31 C119.89 117.22, 78.36 100.55, 0 67 M0 67 C60.8 43.28, 120.61 18.3, 161 0 M0 67 C37.68 50.45, 77.79 34.76, 161 0"
              stroke="#000000" stroke-width="1" fill="none"></path>
    </g>
    <g stroke-linecap="round">
        <g transform="translate(14.45454480280614 178.99595141700388) rotate(0 159.86890380288287 44.28391551099294)"
           fill-rule="evenodd">
            <path d="M0.29 2.05 C0.07 4.09, -2.13 9.79, -0.77 13.36 C0.6 16.93, -2.65 17.22, 8.5 23.48 C19.66 29.74, 44.94 41.39, 66.17 50.92 C87.39 60.44, 119.75 74.58, 135.87 80.63 C151.98 86.67, 153.95 87.14, 162.85 87.21 C171.74 87.27, 174.04 86.89, 189.25 81.01 C204.46 75.14, 233.35 61.25, 254.11 51.96 C274.87 42.68, 302.83 31.86, 313.82 25.29 C324.82 18.72, 319.39 16.44, 320.07 12.56 C320.75 8.68, 322.34 2.02, 317.89 2 C313.44 1.99, 316.82 3.25, 293.37 12.47 C269.92 21.68, 201.56 49.34, 177.2 57.31 C152.83 65.28, 176.72 69.84, 147.17 60.29 C117.62 50.74, 24.49 9.72, -0.11 0"
                  stroke="none" stroke-width="0" fill="#912626" fill-rule="evenodd"></path>
            <path d="M-0.44 -0.59 C-0.28 1.34, -1.38 8.27, -0.14 11.84 C1.1 15.41, -4.49 14.57, 7.02 20.83 C18.53 27.09, 47.48 39.6, 68.94 49.41 C90.39 59.23, 120.04 73.11, 135.75 79.73 C151.45 86.34, 154.38 88.83, 163.14 89.13 C171.9 89.42, 172.95 87.75, 188.29 81.48 C203.63 75.21, 234.49 61.25, 255.2 51.49 C275.91 41.73, 301.79 29.35, 312.56 22.93 C323.33 16.52, 318.95 16.75, 319.81 13 C320.68 9.25, 322.4 0.6, 317.73 0.41 C313.06 0.23, 315.11 2.12, 291.77 11.88 C268.43 21.64, 202.1 51.39, 177.69 59 C153.29 66.61, 175.06 67.23, 145.35 57.54 C115.65 47.86, 23.71 10.57, -0.53 0.89 M1.53 1.72 C1.62 3.27, -1.98 6.7, -1.16 10 C-0.35 13.31, -5.35 14.81, 6.42 21.54 C18.2 28.26, 48.21 40.61, 69.5 50.36 C90.79 60.11, 118.9 73.68, 134.16 80.01 C149.42 86.34, 152.43 88.25, 161.04 88.35 C169.66 88.46, 169.78 86.88, 185.84 80.65 C201.89 74.41, 235.97 60.26, 257.37 50.94 C278.77 41.62, 303.73 31.07, 314.23 24.73 C324.72 18.39, 319.71 16.83, 320.34 12.91 C320.97 9, 322.99 0.98, 318.01 1.25 C313.03 1.53, 313.84 5.14, 290.48 14.57 C267.13 24, 202.22 50.78, 177.88 57.83 C153.55 64.87, 174.22 66.35, 144.49 56.85 C114.76 47.34, 23.46 10.2, -0.48 0.8"
                  stroke="#000000" stroke-width="1" fill="none"></path>
        </g>
    </g>
    <mask></mask>
    <g stroke-linecap="round">
        <g transform="translate(13.95454480280614 129.49595141700388) rotate(0 160.10660381683397 44.1089198827664)"
           fill-rule="evenodd">
            <path d="M-0.77 2.06 C-0.51 3.84, 0.93 9.26, 1.81 12.79 C2.7 16.32, -6.54 16.94, 4.53 23.21 C15.6 29.48, 46.33 41.2, 68.23 50.41 C90.14 59.63, 119.85 72.06, 135.96 78.52 C152.07 84.97, 156.67 88.78, 164.88 89.13 C173.09 89.47, 169.94 86.55, 185.24 80.58 C200.55 74.61, 235.44 62.74, 256.73 53.33 C278.01 43.92, 302.37 30.72, 312.98 24.1 C323.58 17.48, 319.24 17.59, 320.35 13.62 C321.46 9.64, 324.54 0.74, 319.64 0.23 C314.74 -0.27, 314.36 0.38, 290.97 10.58 C267.57 20.78, 203.52 53.46, 179.28 61.44 C155.05 69.43, 175.5 68.41, 145.55 58.5 C115.6 48.6, 23.44 12.08, -0.43 2"
                  stroke="none" stroke-width="0" fill="#912626" fill-rule="evenodd"></path>
            <path d="M-0.14 0.54 C-0.01 2.32, -0.91 6.61, 0.33 10.14 C1.57 13.67, -4 15.14, 7.3 21.7 C18.6 28.26, 46.62 39.72, 68.11 49.51 C89.6 59.3, 120.28 73.75, 136.25 80.43 C152.22 87.11, 155.58 89.65, 163.92 89.59 C172.27 89.54, 171.08 86.54, 186.33 80.1 C201.59 73.67, 234.4 60.23, 255.46 50.97 C276.53 41.71, 301.93 31.03, 312.72 24.54 C323.51 18.05, 319.3 16.18, 320.19 12.03 C321.08 7.88, 322.83 -0.39, 318.04 -0.35 C313.25 -0.31, 314.89 2.43, 291.46 12.27 C268.03 22.11, 201.86 50.84, 177.47 58.69 C153.08 66.55, 174.72 69.26, 145.12 59.39 C115.52 49.52, 24.02 9.27, -0.12 -0.54 M-1.67 -0.23 C-1.64 1.71, -1.87 7.22, -0.45 11.06 C0.97 14.91, -4.59 16.29, 6.86 22.86 C18.3 29.44, 46.9 40.81, 68.24 50.51 C89.59 60.22, 119.27 74.67, 134.94 81.09 C150.6 87.52, 153.65 88.88, 162.24 89.07 C170.84 89.25, 170.59 88.7, 186.52 82.21 C202.44 75.72, 236.45 59.93, 257.78 50.15 C279.1 40.37, 303.94 29.97, 314.47 23.52 C324.99 17.07, 320.25 15.33, 320.92 11.43 C321.59 7.52, 323.64 0.07, 318.49 0.09 C313.33 0.1, 313.5 1.34, 290.01 11.5 C266.52 21.66, 201.85 53, 177.54 61.03 C153.23 69.05, 173.7 70.06, 144.14 59.66 C114.57 49.26, 23.93 8.83, 0.14 -1.38"
                  stroke="#000000" stroke-width="1" fill="none"></path>
        </g>
    </g>
    <mask></mask>
    <g stroke-linecap="round"
       transform="translate(14.454544802806595 62.572874493926975) rotate(0 160.76923076923072 66.15384615384613)">
        <path d="M160.53 -1.91 L322.78 68.46 L160.91 132.31 L-0.35 68.63" stroke="none" stroke-width="0" fill="#c6302b"
              fill-rule="evenodd"></path>
        <path d="M161 0 C205.63 19.89, 253.35 37.83, 321.54 67 M161 0 C207.57 19.13, 251.46 36.98, 321.54 67 M321.54 67 C282.24 82.52, 240.66 99.29, 161 132.31 M321.54 67 C287.04 79.24, 252.65 94.69, 161 132.31 M161 132.31 C115.54 113.95, 69.62 94.16, 0 67 M161 132.31 C97.82 108.7, 36.84 83.42, 0 67 M0 67 C49.11 43.95, 97.06 25.99, 161 0 M0 67 C57.89 43.32, 116.4 18.54, 161 0"
              stroke="#000000" stroke-width="1" fill="none"></path>
    </g>
    <g stroke-linecap="round"
       transform="translate(12.411022535600296 10) rotate(0 160.76923076923072 66.15384615384613)">
        <path d="M162.24 1.46 L321.45 67 L160.65 133.94 L1.9 65.38" stroke="none" stroke-width="0" fill="#c6302b"
              fill-rule="evenodd"></path>
        <path d="M161 0 C212.38 20.75, 265.07 43.52, 321.54 67 M161 0 C215.85 21.31, 271.05 43.82, 321.54 67 M321.54 67 C279.38 84.4, 236.04 101, 161 132.31 M321.54 67 C281.55 82.48, 242.51 97.31, 161 132.31 M161 132.31 C110.64 110.88, 58.9 92, 0 67 M161 132.31 C103.49 109.84, 45.48 85.43, 0 67 M0 67 C61.61 43.16, 124.41 16.8, 161 0 M0 67 C50.68 45.16, 99.66 23.6, 161 0"
              stroke="#000000" stroke-width="1" fill="none"></path>
    </g>
    <g stroke-linecap="round">
        <g transform="translate(11.911022535599841 76.9230769230769) rotate(0 159.70920094082044 43.985513715142396)"
           fill-rule="evenodd">
            <path d="M-0.1 0.7 C0.26 2.15, -1.47 6.26, 0 9.9 C1.47 13.53, -2.33 15.86, 8.73 22.51 C19.79 29.16, 45.04 39.98, 66.36 49.79 C87.67 59.6, 120.56 74.85, 136.61 81.37 C152.66 87.88, 154.2 88.79, 162.65 88.87 C171.1 88.94, 171.42 88.05, 187.29 81.81 C203.17 75.57, 237.03 61.48, 257.91 51.43 C278.8 41.38, 301.96 27.72, 312.6 21.5 C323.25 15.28, 320.93 17.56, 321.78 14.1 C322.63 10.63, 322.81 0.56, 317.7 0.7 C312.59 0.83, 314.04 5.42, 291.11 14.92 C268.18 24.42, 204.74 50.65, 180.1 57.67 C155.46 64.7, 173.29 66.98, 143.26 57.07 C113.23 47.17, 23.7 7.63, -0.09 -1.77"
                  stroke="none" stroke-width="0" fill="#912626" fill-rule="evenodd"></path>
            <path d="M-0.22 -0.2 C-0.27 1.82, -1.04 7.95, 0.29 11.82 C1.62 15.68, -3.42 16.73, 7.77 22.98 C18.96 29.23, 46.19 39.98, 67.45 49.32 C88.71 58.65, 119.52 72.34, 135.35 79.01 C151.17 85.68, 153.76 89.11, 162.39 89.31 C171.02 89.51, 171.48 86.63, 187.13 80.22 C202.79 73.81, 235.32 60.35, 256.31 50.84 C277.31 41.34, 302.49 29.77, 313.1 23.19 C323.71 16.61, 319.27 14.95, 319.97 11.35 C320.67 7.75, 322.03 1.41, 317.28 1.58 C312.52 1.75, 314.63 2.61, 291.42 12.39 C268.21 22.16, 202.3 52.35, 178.03 60.21 C153.76 68.06, 175.53 69.37, 145.8 59.51 C116.06 49.64, 23.78 10.8, -0.38 1.01 M-1.79 -1.35 C-2.03 0.34, -2.06 6.21, -0.5 9.96 C1.06 13.71, -3.72 14.44, 7.57 21.15 C18.86 27.86, 45.63 40.58, 67.24 50.21 C88.84 59.84, 121.16 72.52, 137.22 78.92 C153.27 85.32, 155.14 88.66, 163.56 88.63 C171.98 88.6, 172.43 84.56, 187.74 78.73 C203.04 72.89, 234.8 62.55, 255.41 53.61 C276.02 44.68, 300.52 31.72, 311.39 25.12 C322.25 18.53, 319.59 18.34, 320.58 14.05 C321.57 9.76, 322.42 -0.23, 317.32 -0.63 C312.21 -1.02, 313.1 1.63, 289.94 11.68 C266.79 21.73, 202.52 51.64, 178.39 59.67 C154.26 67.7, 174.94 69.63, 145.16 59.84 C115.39 50.06, 24.16 11.17, -0.24 0.98"
                  stroke="#000000" stroke-width="1" fill="none"></path>
        </g>
    </g>
    <mask></mask>
    <g stroke-linecap="round"
       transform="translate(69.95055575779543 60.19814241486051) rotate(0 34.70588235294122 15.29411764705884)">
        <path d="M17.69 2.01 C23.86 0.4, 34.66 -0.22, 42.19 0.39 C49.73 1, 58.26 3.25, 62.88 5.68 C67.5 8.11, 70.42 11.77, 69.91 14.99 C69.39 18.22, 64.9 22.6, 59.79 25.02 C54.67 27.44, 46.45 29.07, 39.21 29.51 C31.96 29.95, 22.46 29.16, 16.31 27.65 C10.17 26.14, 4.77 23.3, 2.34 20.44 C-0.09 17.58, -1.41 13.73, 1.72 10.5 C4.86 7.27, 17.81 2.63, 21.15 1.08 C24.48 -0.46, 21.5 0.88, 21.72 1.21 M41.3 0.91 C48.25 1.42, 56.72 2.71, 61.23 5.37 C65.73 8.02, 68.41 13.47, 68.34 16.85 C68.27 20.23, 65.72 23.15, 60.82 25.64 C55.92 28.14, 46.49 31.15, 38.92 31.83 C31.34 32.5, 21.73 31.72, 15.37 29.69 C9.01 27.66, 3.01 23.24, 0.76 19.64 C-1.5 16.03, -0.92 11.11, 1.83 8.05 C4.58 4.99, 10.69 2.51, 17.26 1.29 C23.82 0.07, 37 0.83, 41.22 0.72 C45.45 0.61, 42.71 0.67, 42.62 0.63"
              stroke="none" stroke-width="0" fill="#ffff"></path>
        <path d="M49.44 1 C55.73 2.24, 62.37 5.57, 65.58 8.63 C68.79 11.69, 70.62 16.12, 68.69 19.37 C66.76 22.62, 60.4 26.28, 54.02 28.13 C47.63 29.97, 37.83 30.85, 30.37 30.45 C22.92 30.05, 14.49 28.13, 9.31 25.72 C4.13 23.31, -0.36 19.23, -0.7 15.99 C-1.04 12.75, 2.87 8.81, 7.27 6.26 C11.67 3.71, 17.55 1.19, 25.7 0.69 C33.86 0.18, 50.29 2.51, 56.2 3.25 C62.12 3.99, 61.46 4.82, 61.18 5.13 M44.99 1.13 C52.09 1.6, 59.7 3.44, 63.93 6.18 C68.16 8.92, 71.53 14.16, 70.37 17.56 C69.22 20.97, 62.63 24.28, 57.02 26.59 C51.4 28.91, 43.96 31.29, 36.71 31.46 C29.46 31.63, 19.5 29.61, 13.53 27.61 C7.56 25.61, 2.31 22.72, 0.89 19.45 C-0.53 16.18, 1.65 11.27, 5 7.99 C8.35 4.7, 14.16 0.78, 20.99 -0.26 C27.82 -1.29, 42.02 1.58, 45.98 1.79 C49.95 2, 45.15 0.73, 44.78 0.99"
              stroke="#000000" stroke-width="1" fill="none"></path>
    </g>
    <g stroke-linecap="round">
        <g transform="translate(134.12702634603056 106.57524381230866) rotate(0 30.005590196596813 0.7700485078399026)"
           fill-rule="evenodd">
            <path d="M1.9 -1.62 L42.61 13.72 L59.94 -14.79 L0.45 0.55" stroke="none" stroke-width="0" fill="#ffff"
                  fill-rule="evenodd"></path>
            <path d="M0 0 C16.15 2.97, 28.31 8.24, 44.56 14.89 M0 0 C9.86 2.84, 20.09 5.54, 44.56 14.89 M44.56 14.89 C47.66 5.75, 55.27 -1.86, 60.01 -13.35 M44.56 14.89 C48.56 8.45, 52.08 1.24, 60.01 -13.35 M60.01 -13.35 C38.63 -8.96, 15.77 -3.89, 0 0 M60.01 -13.35 C44.77 -9.95, 31.28 -6.16, 0 0 M0 0 C0 0, 0 0, 0 0 M0 0 C0 0, 0 0, 0 0"
                  stroke="#000000" stroke-width="1" fill="none"></path>
        </g>
    </g>
    <mask></mask>
    <g stroke-linecap="round">
        <g transform="translate(156.12702634603102 30.198142414860513) rotate(0 18.30882352941171 16.79411764705884)"
           fill-rule="evenodd">
            <path d="M1.64 1.92 L4.85 10.42 L-10.91 20.27 L10.4 22.5 L20.2 37.51 L21.38 22.11 L46.71 16.57 L26.39 11.86 L33.26 -4.01 L17.39 4.28 L1.03 0.63"
                  stroke="none" stroke-width="0" fill="#ffff" fill-rule="evenodd"></path>
            <path d="M0 0 C1.81 4.11, 3.39 9.05, 5.53 12.21 M0 0 C2.1 3.8, 3.91 8.38, 5.53 12.21 M5.53 12.21 C2.39 14.56, -4.3 17.78, -10.68 21.74 M5.53 12.21 C-0.36 16.43, -4.98 19.51, -10.68 21.74 M-10.68 21.74 C-5.92 22.14, -3.45 24.19, 9.06 23.62 M-10.68 21.74 C-4.09 22.92, 1.9 23.04, 9.06 23.62 M9.06 23.62 C12.16 27.05, 14.21 32.42, 20.12 36.53 M9.06 23.62 C13.03 29.13, 18.11 32.56, 20.12 36.53 M20.12 36.53 C19.68 33.81, 21.79 30.48, 23 21.35 M20.12 36.53 C20.61 30.16, 21.96 24.64, 23 21.35 M23 21.35 C29.31 21.62, 31.45 21.92, 47.29 17.85 M23 21.35 C32.02 20.93, 41.5 19.41, 47.29 17.85 M47.29 17.85 C42.7 14.89, 35.83 13.03, 26.53 11.44 M47.29 17.85 C39.37 16.45, 31.57 14.16, 26.53 11.44 M26.53 11.44 C26.56 6.71, 29.13 3.73, 32.94 -2.94 M26.53 11.44 C28.24 6.05, 31.22 2.04, 32.94 -2.94 M32.94 -2.94 C25.91 1.24, 18.62 4.72, 15.44 5.06 M32.94 -2.94 C28.85 -1.46, 25.35 1.43, 15.44 5.06 M15.44 5.06 C10.43 4.65, 7.43 2.72, 0 0 M15.44 5.06 C8.74 2.98, 2.69 0.95, 0 0 M0 0 C0 0, 0 0, 0 0 M0 0 C0 0, 0 0, 0 0"
                  stroke="#000000" stroke-width="1" fill="none"></path>
        </g>
    </g>
    <mask></mask>
    <g stroke-linecap="round">
        <g transform="translate(247.22657385734283 58.94474874970217) rotate(0 0 15)" fill-rule="evenodd">
            <path d="M-0.98 0.75 L36.3 14.26 L-2.9 31.29 L-36.97 15.11 L-0.68 1.84 L-1.13 1.93" stroke="none"
                  stroke-width="0" fill="#912626" fill-rule="evenodd"></path>
            <path d="M0 0 C6.94 2.84, 18.12 6.87, 37.5 15 M0 0 C10.34 3.93, 20.53 7.83, 37.5 15 M37.5 15 C26.74 19.22, 18.59 22.87, -1.5 30 M37.5 15 C23.22 21.69, 6.63 27.34, -1.5 30 M-1.5 30 C-13.35 27.22, -22.44 19.51, -37.5 15 M-1.5 30 C-12.54 25.77, -23.34 21.65, -37.5 15 M-37.5 15 C-25.33 10.7, -7.89 3.75, 0 0 M-37.5 15 C-25.27 9.38, -15.94 5.11, 0 0 M0 0 C0 0, 0 0, 0 0 M0 0 C0 0, 0 0, 0 0 M0 0 C0 0, 0 0, 0 0 M0 0 C0 0, 0 0, 0 0"
                  stroke="#000000" stroke-width="1" fill="none"></path>
        </g>
    </g>
    <mask></mask>
    <g stroke-linecap="round">
        <g transform="translate(243.3699011612739 58.03928845492288) rotate(0 0.38461538461547207 15)">
            <path d="M0 0 C0.66 7.4, 0.04 15.13, 0.77 30 M0 0 C0.03 5.99, 0.1 13.15, 0.77 30" stroke="#000000"
                  stroke-width="1" fill="none"></path>
        </g>
    </g>
    <mask></mask>
</svg>